# MagicaVoxel @ Ephtracy

# group
g powerup_bomb

# material
mtllib powerup_bomb.mtl
usemtl palette

# normals
vn -1 0 0
vn 1 0 0
vn 0 0 1
vn 0 0 -1
vn 0 -1 0
vn 0 1 0

# texcoords
vt 0.869141 0.5
vt 0.900391 0.5
vt 0.931641 0.5
vt 0.935547 0.5
vt 0.962891 0.5
vt 0.966797 0.5

# verts
v -9 8 10
v -9 8 8
v -9 13 10
v -9 13 8
v -8 6 10
v -8 6 8
v -8 8 10
v -8 8 8
v -8 13 10
v -8 13 8
v -8 15 10
v -8 15 8
v -7 4 10
v -7 4 8
v -7 6 10
v -7 6 8
v -7 15 10
v -7 15 8
v -7 17 10
v -7 17 8
v -5 3 10
v -5 3 8
v -5 4 10
v -5 4 8
v -5 17 10
v -5 17 8
v -5 18 10
v -5 18 8
v -3 2 10
v -3 2 8
v -3 3 10
v -3 3 8
v -3 18 10
v -3 18 8
v -3 19 10
v -3 19 8
v 2 2 10
v 2 2 8
v 2 3 10
v 2 3 8
v 2 18 10
v 2 18 8
v 2 19 10
v 2 19 8
v 4 3 10
v 4 3 8
v 4 4 10
v 4 4 8
v 4 17 10
v 4 17 8
v 4 18 10
v 4 18 8
v 6 4 10
v 6 4 8
v 6 5 10
v 6 5 8
v 6 6 10
v 6 6 8
v 6 15 10
v 6 15 8
v 6 16 10
v 6 16 8
v 6 17 10
v 6 17 8
v 7 6 10
v 7 6 8
v 7 7 10
v 7 7 8
v 7 8 10
v 7 8 8
v 7 13 10
v 7 13 8
v 7 14 10
v 7 14 8
v 7 15 10
v 7 15 8
v 8 8 10
v 8 8 8
v 8 13 10
v 8 13 8
v -9 8 10
v -9 13 10
v -8 6 10
v -8 8 10
v -8 13 10
v -8 15 10
v -7 4 10
v -7 6 10
v -7 7 10
v -7 8 10
v -7 13 10
v -7 14 10
v -7 15 10
v -7 17 10
v -6 5 10
v -6 6 10
v -6 7 10
v -6 8 10
v -6 13 10
v -6 14 10
v -6 15 10
v -6 16 10
v -5 3 10
v -5 4 10
v -5 5 10
v -5 6 10
v -5 15 10
v -5 16 10
v -5 17 10
v -5 18 10
v -4 4 10
v -4 5 10
v -4 16 10
v -4 17 10
v -3 2 10
v -3 3 10
v -3 4 10
v -3 5 10
v -3 8 10
v -3 11 10
v -3 16 10
v -3 17 10
v -3 18 10
v -3 19 10
v -2 7 10
v -2 8 10
v -2 11 10
v -2 12 10
v -1 12 10
v -1 14 10
v 0 7 10
v 0 8 10
v 0 11 10
v 0 12 10
v 0 13 10
v 0 14 10
v 0 15 10
v 1 2 10
v 1 3 10
v 1 4 10
v 1 5 10
v 1 7 10
v 1 8 10
v 1 11 10
v 1 12 10
v 1 13 10
v 1 15 10
v 1 16 10
v 1 17 10
v 1 18 10
v 1 19 10
v 2 2 10
v 2 3 10
v 2 4 10
v 2 5 10
v 2 8 10
v 2 11 10
v 2 16 10
v 2 17 10
v 2 18 10
v 2 19 10
v 3 3 10
v 3 4 10
v 3 5 10
v 3 6 10
v 3 15 10
v 3 16 10
v 3 17 10
v 3 18 10
v 4 3 10
v 4 4 10
v 4 5 10
v 4 6 10
v 4 8 10
v 4 13 10
v 4 15 10
v 4 16 10
v 4 17 10
v 4 18 10
v 5 4 10
v 5 5 10
v 5 6 10
v 5 8 10
v 5 13 10
v 5 15 10
v 5 16 10
v 5 17 10
v 6 4 10
v 6 5 10
v 6 6 10
v 6 7 10
v 6 8 10
v 6 13 10
v 6 14 10
v 6 15 10
v 6 16 10
v 6 17 10
v 7 6 10
v 7 7 10
v 7 8 10
v 7 13 10
v 7 14 10
v 7 15 10
v 8 8 10
v 8 13 10
v -9 8 8
v -9 13 8
v -8 6 8
v -8 8 8
v -8 13 8
v -8 15 8
v -7 4 8
v -7 6 8
v -7 7 8
v -7 8 8
v -7 13 8
v -7 14 8
v -7 15 8
v -7 17 8
v -6 5 8
v -6 6 8
v -6 7 8
v -6 8 8
v -6 13 8
v -6 14 8
v -6 15 8
v -6 16 8
v -5 3 8
v -5 4 8
v -5 5 8
v -5 6 8
v -5 15 8
v -5 16 8
v -5 17 8
v -5 18 8
v -4 4 8
v -4 5 8
v -4 16 8
v -4 17 8
v -3 2 8
v -3 3 8
v -3 4 8
v -3 5 8
v -3 8 8
v -3 11 8
v -3 16 8
v -3 17 8
v -3 18 8
v -3 19 8
v -2 7 8
v -2 8 8
v -2 11 8
v -2 12 8
v -1 12 8
v -1 14 8
v 0 7 8
v 0 8 8
v 0 11 8
v 0 12 8
v 0 13 8
v 0 14 8
v 0 15 8
v 1 2 8
v 1 3 8
v 1 4 8
v 1 5 8
v 1 7 8
v 1 8 8
v 1 11 8
v 1 12 8
v 1 13 8
v 1 15 8
v 1 16 8
v 1 17 8
v 1 18 8
v 1 19 8
v 2 2 8
v 2 3 8
v 2 4 8
v 2 5 8
v 2 8 8
v 2 11 8
v 2 16 8
v 2 17 8
v 2 18 8
v 2 19 8
v 3 3 8
v 3 4 8
v 3 5 8
v 3 6 8
v 3 15 8
v 3 16 8
v 3 17 8
v 3 18 8
v 4 3 8
v 4 4 8
v 4 5 8
v 4 6 8
v 4 8 8
v 4 13 8
v 4 15 8
v 4 16 8
v 4 17 8
v 4 18 8
v 5 4 8
v 5 5 8
v 5 6 8
v 5 8 8
v 5 13 8
v 5 15 8
v 5 16 8
v 5 17 8
v 6 4 8
v 6 5 8
v 6 6 8
v 6 7 8
v 6 8 8
v 6 13 8
v 6 14 8
v 6 15 8
v 6 16 8
v 6 17 8
v 7 6 8
v 7 7 8
v 7 8 8
v 7 13 8
v 7 14 8
v 7 15 8
v 8 8 8
v 8 13 8
v -3 2 10
v 1 2 10
v 2 2 10
v -3 2 8
v 1 2 8
v 2 2 8
v -5 3 10
v -3 3 10
v 2 3 10
v 3 3 10
v 4 3 10
v -5 3 8
v -3 3 8
v 2 3 8
v 3 3 8
v 4 3 8
v -7 4 10
v -5 4 10
v 4 4 10
v 5 4 10
v 6 4 10
v -7 4 8
v -5 4 8
v 4 4 8
v 5 4 8
v 6 4 8
v -8 6 10
v -7 6 10
v 6 6 10
v 7 6 10
v -8 6 8
v -7 6 8
v 6 6 8
v 7 6 8
v -9 8 10
v -8 8 10
v 7 8 10
v 8 8 10
v -9 8 8
v -8 8 8
v 7 8 8
v 8 8 8
v -9 13 10
v -8 13 10
v 7 13 10
v 8 13 10
v -9 13 8
v -8 13 8
v 7 13 8
v 8 13 8
v -8 15 10
v -7 15 10
v 6 15 10
v 7 15 10
v -8 15 8
v -7 15 8
v 6 15 8
v 7 15 8
v -7 17 10
v -5 17 10
v 4 17 10
v 5 17 10
v 6 17 10
v -7 17 8
v -5 17 8
v 4 17 8
v 5 17 8
v 6 17 8
v -5 18 10
v -3 18 10
v 2 18 10
v 3 18 10
v 4 18 10
v -5 18 8
v -3 18 8
v 2 18 8
v 3 18 8
v 4 18 8
v -3 19 10
v 1 19 10
v 2 19 10
v -3 19 8
v 1 19 8
v 2 19 8

# faces
f 3/5/1 2/5/1 1/5/1
f 4/5/1 2/5/1 3/5/1
f 7/5/1 6/5/1 5/5/1
f 8/5/1 6/5/1 7/5/1
f 11/5/1 10/5/1 9/5/1
f 12/5/1 10/5/1 11/5/1
f 15/5/1 14/5/1 13/5/1
f 16/5/1 14/5/1 15/5/1
f 19/5/1 18/5/1 17/5/1
f 20/5/1 18/5/1 19/5/1
f 23/5/1 22/5/1 21/5/1
f 24/5/1 22/5/1 23/5/1
f 27/5/1 26/5/1 25/5/1
f 28/5/1 26/5/1 27/5/1
f 31/5/1 30/5/1 29/5/1
f 32/5/1 30/5/1 31/5/1
f 35/5/1 34/5/1 33/5/1
f 36/5/1 34/5/1 35/5/1
f 37/6/2 38/6/2 39/6/2
f 39/6/2 38/6/2 40/6/2
f 41/6/2 42/6/2 43/6/2
f 43/6/2 42/6/2 44/6/2
f 45/6/2 46/6/2 47/6/2
f 47/6/2 46/6/2 48/6/2
f 49/6/2 50/6/2 51/6/2
f 51/6/2 50/6/2 52/6/2
f 53/6/2 54/6/2 55/6/2
f 55/6/2 54/6/2 56/6/2
f 55/5/2 56/5/2 57/5/2
f 57/5/2 56/5/2 58/5/2
f 59/5/2 60/5/2 61/5/2
f 61/5/2 60/5/2 62/5/2
f 61/6/2 62/6/2 63/6/2
f 63/6/2 62/6/2 64/6/2
f 65/6/2 66/6/2 67/6/2
f 67/6/2 66/6/2 68/6/2
f 67/5/2 68/5/2 69/5/2
f 69/5/2 68/5/2 70/5/2
f 71/5/2 72/5/2 73/5/2
f 73/5/2 72/5/2 74/5/2
f 73/6/2 74/6/2 75/6/2
f 75/6/2 74/6/2 76/6/2
f 77/6/2 78/6/2 79/6/2
f 79/6/2 78/6/2 80/6/2
f 84/5/3 82/5/3 81/5/3
f 85/5/3 82/5/3 84/5/3
f 88/5/3 84/5/3 83/5/3
f 89/5/3 84/5/3 88/5/3
f 90/6/3 85/6/3 84/6/3
f 90/5/3 84/5/3 89/5/3
f 91/5/3 86/5/3 85/5/3
f 91/6/3 85/6/3 90/6/3
f 92/5/3 86/5/3 91/5/3
f 93/5/3 86/5/3 92/5/3
f 95/5/3 89/5/3 88/5/3
f 95/5/3 88/5/3 87/5/3
f 96/5/3 89/5/3 95/5/3
f 97/6/3 90/6/3 89/6/3
f 97/5/3 89/5/3 96/5/3
f 98/3/3 91/3/3 90/3/3
f 98/6/3 90/6/3 97/6/3
f 99/6/3 92/6/3 91/6/3
f 99/3/3 91/3/3 98/3/3
f 100/5/3 94/5/3 93/5/3
f 100/6/3 92/6/3 99/6/3
f 100/5/3 93/5/3 92/5/3
f 101/5/3 94/5/3 100/5/3
f 102/5/3 94/5/3 101/5/3
f 104/5/3 95/5/3 87/5/3
f 105/6/3 96/6/3 95/6/3
f 105/5/3 95/5/3 104/5/3
f 106/3/3 99/3/3 98/3/3
f 106/6/3 96/6/3 105/6/3
f 106/3/3 97/3/3 96/3/3
f 106/3/3 98/3/3 97/3/3
f 106/3/3 100/3/3 99/3/3
f 106/3/3 101/3/3 100/3/3
f 107/6/3 102/6/3 101/6/3
f 107/3/3 101/3/3 106/3/3
f 108/5/3 94/5/3 102/5/3
f 108/6/3 102/6/3 107/6/3
f 109/5/3 94/5/3 108/5/3
f 111/5/3 104/5/3 103/5/3
f 111/5/3 105/5/3 104/5/3
f 112/3/3 107/3/3 106/3/3
f 112/5/3 105/5/3 111/5/3
f 112/3/3 106/3/3 105/3/3
f 112/3/3 108/3/3 107/3/3
f 113/5/3 110/5/3 109/5/3
f 113/3/3 108/3/3 112/3/3
f 113/5/3 109/5/3 108/5/3
f 114/5/3 110/5/3 113/5/3
f 116/5/3 111/5/3 103/5/3
f 117/6/3 112/6/3 111/6/3
f 117/5/3 111/5/3 116/5/3
f 118/3/3 113/3/3 112/3/3
f 118/6/3 112/6/3 117/6/3
f 119/3/3 113/3/3 118/3/3
f 120/3/3 113/3/3 119/3/3
f 121/6/3 114/6/3 113/6/3
f 121/3/3 113/3/3 120/3/3
f 122/5/3 110/5/3 114/5/3
f 122/6/3 114/6/3 121/6/3
f 123/5/3 110/5/3 122/5/3
f 125/3/3 118/3/3 117/3/3
f 125/3/3 119/3/3 118/3/3
f 126/2/3 120/2/3 119/2/3
f 126/3/3 119/3/3 125/3/3
f 127/3/3 121/3/3 120/3/3
f 127/2/3 120/2/3 126/2/3
f 127/3/3 122/3/3 121/3/3
f 128/3/3 122/3/3 127/3/3
f 129/2/3 126/2/3 125/2/3
f 129/3/3 122/3/3 128/3/3
f 129/2/3 128/2/3 127/2/3
f 129/2/3 127/2/3 126/2/3
f 130/3/3 122/3/3 129/3/3
f 131/3/3 125/3/3 117/3/3
f 131/2/3 129/2/3 125/2/3
f 132/2/3 129/2/3 131/2/3
f 133/2/3 129/2/3 132/2/3
f 134/1/3 130/1/3 129/1/3
f 134/2/3 129/2/3 133/2/3
f 135/1/3 130/1/3 134/1/3
f 136/3/3 122/3/3 130/3/3
f 136/1/3 130/1/3 135/1/3
f 137/3/3 122/3/3 136/3/3
f 138/5/3 116/5/3 115/5/3
f 138/5/3 117/5/3 116/5/3
f 139/5/3 117/5/3 138/5/3
f 140/3/3 131/3/3 117/3/3
f 140/5/3 117/5/3 139/5/3
f 141/3/3 131/3/3 140/3/3
f 142/1/3 132/1/3 131/1/3
f 142/3/3 131/3/3 141/3/3
f 143/2/3 133/2/3 132/2/3
f 143/1/3 132/1/3 142/1/3
f 144/1/3 134/1/3 133/1/3
f 144/2/3 133/2/3 143/2/3
f 145/3/3 135/3/3 134/3/3
f 145/1/3 134/1/3 144/1/3
f 146/1/3 137/1/3 136/1/3
f 146/3/3 135/3/3 145/3/3
f 146/1/3 136/1/3 135/1/3
f 147/3/3 122/3/3 137/3/3
f 147/1/3 137/1/3 146/1/3
f 148/3/3 122/3/3 147/3/3
f 149/5/3 123/5/3 122/5/3
f 149/3/3 122/3/3 148/3/3
f 149/5/3 124/5/3 123/5/3
f 150/5/3 124/5/3 149/5/3
f 151/5/3 124/5/3 150/5/3
f 152/6/3 139/6/3 138/6/3
f 153/5/3 140/5/3 139/5/3
f 153/6/3 139/6/3 152/6/3
f 154/4/3 141/4/3 140/4/3
f 154/5/3 140/5/3 153/5/3
f 155/3/3 142/3/3 141/3/3
f 155/4/3 141/4/3 154/4/3
f 155/3/3 143/3/3 142/3/3
f 156/1/3 144/1/3 143/1/3
f 156/3/3 143/3/3 155/3/3
f 157/3/3 146/3/3 145/3/3
f 157/1/3 144/1/3 156/1/3
f 157/3/3 148/3/3 147/3/3
f 157/3/3 145/3/3 144/3/3
f 157/3/3 147/3/3 146/3/3
f 158/4/3 149/4/3 148/4/3
f 158/3/3 148/3/3 157/3/3
f 159/5/3 150/5/3 149/5/3
f 159/4/3 149/4/3 158/4/3
f 160/6/3 151/6/3 150/6/3
f 160/5/3 150/5/3 159/5/3
f 161/6/3 151/6/3 160/6/3
f 162/5/3 155/5/3 154/5/3
f 162/5/3 154/5/3 153/5/3
f 163/5/3 155/5/3 162/5/3
f 164/3/3 156/3/3 155/3/3
f 164/5/3 155/5/3 163/5/3
f 164/3/3 158/3/3 157/3/3
f 164/3/3 157/3/3 156/3/3
f 165/3/3 158/3/3 164/3/3
f 166/3/3 158/3/3 165/3/3
f 167/5/3 159/5/3 158/5/3
f 167/3/3 158/3/3 166/3/3
f 167/5/3 160/5/3 159/5/3
f 168/5/3 160/5/3 167/5/3
f 169/5/3 160/5/3 168/5/3
f 170/6/3 163/6/3 162/6/3
f 171/5/3 164/5/3 163/5/3
f 171/6/3 163/6/3 170/6/3
f 172/4/3 165/4/3 164/4/3
f 172/5/3 164/5/3 171/5/3
f 173/3/3 166/3/3 165/3/3
f 173/4/3 165/4/3 172/4/3
f 174/3/3 166/3/3 173/3/3
f 175/3/3 166/3/3 174/3/3
f 176/4/3 167/4/3 166/4/3
f 176/3/3 166/3/3 175/3/3
f 177/5/3 168/5/3 167/5/3
f 177/4/3 167/4/3 176/4/3
f 178/6/3 169/6/3 168/6/3
f 178/5/3 168/5/3 177/5/3
f 179/6/3 169/6/3 178/6/3
f 180/5/3 172/5/3 171/5/3
f 180/5/3 173/5/3 172/5/3
f 181/5/3 173/5/3 180/5/3
f 182/4/3 174/4/3 173/4/3
f 182/5/3 173/5/3 181/5/3
f 183/3/3 175/3/3 174/3/3
f 183/4/3 174/4/3 182/4/3
f 184/4/3 176/4/3 175/4/3
f 184/3/3 175/3/3 183/3/3
f 185/5/3 178/5/3 177/5/3
f 185/4/3 176/4/3 184/4/3
f 185/5/3 177/5/3 176/5/3
f 186/5/3 178/5/3 185/5/3
f 187/5/3 178/5/3 186/5/3
f 188/6/3 181/6/3 180/6/3
f 189/5/3 182/5/3 181/5/3
f 189/6/3 181/6/3 188/6/3
f 189/5/3 183/5/3 182/5/3
f 190/5/3 183/5/3 189/5/3
f 191/5/3 183/5/3 190/5/3
f 192/4/3 184/4/3 183/4/3
f 192/5/3 183/5/3 191/5/3
f 193/5/3 185/5/3 184/5/3
f 193/4/3 184/4/3 192/4/3
f 193/5/3 186/5/3 185/5/3
f 194/5/3 186/5/3 193/5/3
f 195/5/3 186/5/3 194/5/3
f 196/6/3 187/6/3 186/6/3
f 196/5/3 186/5/3 195/5/3
f 197/6/3 187/6/3 196/6/3
f 198/6/3 191/6/3 190/6/3
f 199/5/3 192/5/3 191/5/3
f 199/6/3 191/6/3 198/6/3
f 199/5/3 194/5/3 193/5/3
f 199/5/3 193/5/3 192/5/3
f 200/5/3 194/5/3 199/5/3
f 201/5/3 194/5/3 200/5/3
f 202/6/3 195/6/3 194/6/3
f 202/5/3 194/5/3 201/5/3
f 203/6/3 195/6/3 202/6/3
f 204/6/3 201/6/3 200/6/3
f 205/6/3 201/6/3 204/6/3
f 206/5/4 207/5/4 209/5/4
f 209/5/4 207/5/4 210/5/4
f 208/5/4 209/5/4 213/5/4
f 213/5/4 209/5/4 214/5/4
f 209/6/4 210/6/4 215/6/4
f 214/5/4 209/5/4 215/5/4
f 210/5/4 211/5/4 216/5/4
f 215/6/4 210/6/4 216/6/4
f 216/5/4 211/5/4 217/5/4
f 217/5/4 211/5/4 218/5/4
f 213/5/4 214/5/4 220/5/4
f 212/5/4 213/5/4 220/5/4
f 220/5/4 214/5/4 221/5/4
f 214/6/4 215/6/4 222/6/4
f 221/5/4 214/5/4 222/5/4
f 215/3/4 216/3/4 223/3/4
f 222/6/4 215/6/4 223/6/4
f 216/6/4 217/6/4 224/6/4
f 223/3/4 216/3/4 224/3/4
f 218/5/4 219/5/4 225/5/4
f 224/6/4 217/6/4 225/6/4
f 217/5/4 218/5/4 225/5/4
f 225/5/4 219/5/4 226/5/4
f 226/5/4 219/5/4 227/5/4
f 212/5/4 220/5/4 229/5/4
f 220/6/4 221/6/4 230/6/4
f 229/5/4 220/5/4 230/5/4
f 223/3/4 224/3/4 231/3/4
f 230/6/4 221/6/4 231/6/4
f 221/3/4 222/3/4 231/3/4
f 222/3/4 223/3/4 231/3/4
f 224/3/4 225/3/4 231/3/4
f 225/3/4 226/3/4 231/3/4
f 226/6/4 227/6/4 232/6/4
f 231/3/4 226/3/4 232/3/4
f 227/5/4 219/5/4 233/5/4
f 232/6/4 227/6/4 233/6/4
f 233/5/4 219/5/4 234/5/4
f 228/5/4 229/5/4 236/5/4
f 229/5/4 230/5/4 236/5/4
f 231/3/4 232/3/4 237/3/4
f 236/5/4 230/5/4 237/5/4
f 230/3/4 231/3/4 237/3/4
f 232/3/4 233/3/4 237/3/4
f 234/5/4 235/5/4 238/5/4
f 237/3/4 233/3/4 238/3/4
f 233/5/4 234/5/4 238/5/4
f 238/5/4 235/5/4 239/5/4
f 228/5/4 236/5/4 241/5/4
f 236/6/4 237/6/4 242/6/4
f 241/5/4 236/5/4 242/5/4
f 237/3/4 238/3/4 243/3/4
f 242/6/4 237/6/4 243/6/4
f 243/3/4 238/3/4 244/3/4
f 244/3/4 238/3/4 245/3/4
f 238/6/4 239/6/4 246/6/4
f 245/3/4 238/3/4 246/3/4
f 239/5/4 235/5/4 247/5/4
f 246/6/4 239/6/4 247/6/4
f 247/5/4 235/5/4 248/5/4
f 242/3/4 243/3/4 250/3/4
f 243/3/4 244/3/4 250/3/4
f 244/2/4 245/2/4 251/2/4
f 250/3/4 244/3/4 251/3/4
f 245/3/4 246/3/4 252/3/4
f 251/2/4 245/2/4 252/2/4
f 246/3/4 247/3/4 252/3/4
f 252/3/4 247/3/4 253/3/4
f 250/2/4 251/2/4 254/2/4
f 253/3/4 247/3/4 254/3/4
f 252/2/4 253/2/4 254/2/4
f 251/2/4 252/2/4 254/2/4
f 254/3/4 247/3/4 255/3/4
f 242/3/4 250/3/4 256/3/4
f 250/2/4 254/2/4 256/2/4
f 256/2/4 254/2/4 257/2/4
f 257/2/4 254/2/4 258/2/4
f 254/1/4 255/1/4 259/1/4
f 258/2/4 254/2/4 259/2/4
f 259/1/4 255/1/4 260/1/4
f 255/3/4 247/3/4 261/3/4
f 260/1/4 255/1/4 261/1/4
f 261/3/4 247/3/4 262/3/4
f 240/5/4 241/5/4 263/5/4
f 241/5/4 242/5/4 263/5/4
f 263/5/4 242/5/4 264/5/4
f 242/3/4 256/3/4 265/3/4
f 264/5/4 242/5/4 265/5/4
f 265/3/4 256/3/4 266/3/4
f 256/1/4 257/1/4 267/1/4
f 266/3/4 256/3/4 267/3/4
f 257/2/4 258/2/4 268/2/4
f 267/1/4 257/1/4 268/1/4
f 258/1/4 259/1/4 269/1/4
f 268/2/4 258/2/4 269/2/4
f 259/3/4 260/3/4 270/3/4
f 269/1/4 259/1/4 270/1/4
f 261/1/4 262/1/4 271/1/4
f 270/3/4 260/3/4 271/3/4
f 260/1/4 261/1/4 271/1/4
f 262/3/4 247/3/4 272/3/4
f 271/1/4 262/1/4 272/1/4
f 272/3/4 247/3/4 273/3/4
f 247/5/4 248/5/4 274/5/4
f 273/3/4 247/3/4 274/3/4
f 248/5/4 249/5/4 274/5/4
f 274/5/4 249/5/4 275/5/4
f 275/5/4 249/5/4 276/5/4
f 263/6/4 264/6/4 277/6/4
f 264/5/4 265/5/4 278/5/4
f 277/6/4 264/6/4 278/6/4
f 265/4/4 266/4/4 279/4/4
f 278/5/4 265/5/4 279/5/4
f 266/3/4 267/3/4 280/3/4
f 279/4/4 266/4/4 280/4/4
f 267/3/4 268/3/4 280/3/4
f 268/1/4 269/1/4 281/1/4
f 280/3/4 268/3/4 281/3/4
f 270/3/4 271/3/4 282/3/4
f 281/1/4 269/1/4 282/1/4
f 272/3/4 273/3/4 282/3/4
f 269/3/4 270/3/4 282/3/4
f 271/3/4 272/3/4 282/3/4
f 273/4/4 274/4/4 283/4/4
f 282/3/4 273/3/4 283/3/4
f 274/5/4 275/5/4 284/5/4
f 283/4/4 274/4/4 284/4/4
f 275/6/4 276/6/4 285/6/4
f 284/5/4 275/5/4 285/5/4
f 285/6/4 276/6/4 286/6/4
f 279/5/4 280/5/4 287/5/4
f 278/5/4 279/5/4 287/5/4
f 287/5/4 280/5/4 288/5/4
f 280/3/4 281/3/4 289/3/4
f 288/5/4 280/5/4 289/5/4
f 282/3/4 283/3/4 289/3/4
f 281/3/4 282/3/4 289/3/4
f 289/3/4 283/3/4 290/3/4
f 290/3/4 283/3/4 291/3/4
f 283/5/4 284/5/4 292/5/4
f 291/3/4 283/3/4 292/3/4
f 284/5/4 285/5/4 292/5/4
f 292/5/4 285/5/4 293/5/4
f 293/5/4 285/5/4 294/5/4
f 287/6/4 288/6/4 295/6/4
f 288/5/4 289/5/4 296/5/4
f 295/6/4 288/6/4 296/6/4
f 289/4/4 290/4/4 297/4/4
f 296/5/4 289/5/4 297/5/4
f 290/3/4 291/3/4 298/3/4
f 297/4/4 290/4/4 298/4/4
f 298/3/4 291/3/4 299/3/4
f 299/3/4 291/3/4 300/3/4
f 291/4/4 292/4/4 301/4/4
f 300/3/4 291/3/4 301/3/4
f 292/5/4 293/5/4 302/5/4
f 301/4/4 292/4/4 302/4/4
f 293/6/4 294/6/4 303/6/4
f 302/5/4 293/5/4 303/5/4
f 303/6/4 294/6/4 304/6/4
f 296/5/4 297/5/4 305/5/4
f 297/5/4 298/5/4 305/5/4
f 305/5/4 298/5/4 306/5/4
f 298/4/4 299/4/4 307/4/4
f 306/5/4 298/5/4 307/5/4
f 299/3/4 300/3/4 308/3/4
f 307/4/4 299/4/4 308/4/4
f 300/4/4 301/4/4 309/4/4
f 308/3/4 300/3/4 309/3/4
f 302/5/4 303/5/4 310/5/4
f 309/4/4 301/4/4 310/4/4
f 301/5/4 302/5/4 310/5/4
f 310/5/4 303/5/4 311/5/4
f 311/5/4 303/5/4 312/5/4
f 305/6/4 306/6/4 313/6/4
f 306/5/4 307/5/4 314/5/4
f 313/6/4 306/6/4 314/6/4
f 307/5/4 308/5/4 314/5/4
f 314/5/4 308/5/4 315/5/4
f 315/5/4 308/5/4 316/5/4
f 308/4/4 309/4/4 317/4/4
f 316/5/4 308/5/4 317/5/4
f 309/5/4 310/5/4 318/5/4
f 317/4/4 309/4/4 318/4/4
f 310/5/4 311/5/4 318/5/4
f 318/5/4 311/5/4 319/5/4
f 319/5/4 311/5/4 320/5/4
f 311/6/4 312/6/4 321/6/4
f 320/5/4 311/5/4 321/5/4
f 321/6/4 312/6/4 322/6/4
f 315/6/4 316/6/4 323/6/4
f 316/5/4 317/5/4 324/5/4
f 323/6/4 316/6/4 324/6/4
f 318/5/4 319/5/4 324/5/4
f 317/5/4 318/5/4 324/5/4
f 324/5/4 319/5/4 325/5/4
f 325/5/4 319/5/4 326/5/4
f 319/6/4 320/6/4 327/6/4
f 326/5/4 319/5/4 327/5/4
f 327/6/4 320/6/4 328/6/4
f 325/6/4 326/6/4 329/6/4
f 329/6/4 326/6/4 330/6/4
f 334/5/5 332/5/5 331/5/5
f 335/6/5 333/6/5 332/6/5
f 335/5/5 332/5/5 334/5/5
f 336/6/5 333/6/5 335/6/5
f 342/5/5 338/5/5 337/5/5
f 343/5/5 338/5/5 342/5/5
f 344/5/5 340/5/5 339/5/5
f 345/6/5 341/6/5 340/6/5
f 345/5/5 340/5/5 344/5/5
f 346/6/5 341/6/5 345/6/5
f 352/5/5 348/5/5 347/5/5
f 353/5/5 348/5/5 352/5/5
f 354/5/5 350/5/5 349/5/5
f 355/6/5 351/6/5 350/6/5
f 355/5/5 350/5/5 354/5/5
f 356/6/5 351/6/5 355/6/5
f 361/5/5 358/5/5 357/5/5
f 362/5/5 358/5/5 361/5/5
f 363/6/5 360/6/5 359/6/5
f 364/6/5 360/6/5 363/6/5
f 369/5/5 366/5/5 365/5/5
f 370/5/5 366/5/5 369/5/5
f 371/6/5 368/6/5 367/6/5
f 372/6/5 368/6/5 371/6/5
f 373/5/6 374/5/6 377/5/6
f 377/5/6 374/5/6 378/5/6
f 375/6/6 376/6/6 379/6/6
f 379/6/6 376/6/6 380/6/6
f 381/5/6 382/5/6 385/5/6
f 385/5/6 382/5/6 386/5/6
f 383/6/6 384/6/6 387/6/6
f 387/6/6 384/6/6 388/6/6
f 389/5/6 390/5/6 394/5/6
f 394/5/6 390/5/6 395/5/6
f 391/5/6 392/5/6 396/5/6
f 392/6/6 393/6/6 397/6/6
f 396/5/6 392/5/6 397/5/6
f 397/6/6 393/6/6 398/6/6
f 399/5/6 400/5/6 404/5/6
f 404/5/6 400/5/6 405/5/6
f 401/5/6 402/5/6 406/5/6
f 402/6/6 403/6/6 407/6/6
f 406/5/6 402/5/6 407/5/6
f 407/6/6 403/6/6 408/6/6
f 409/5/6 410/5/6 412/5/6
f 410/6/6 411/6/6 413/6/6
f 412/5/6 410/5/6 413/5/6
f 413/6/6 411/6/6 414/6/6
