# MagicaVoxel @ Ephtracy

# group
g powerup_speed

# material
mtllib powerup_speed.mtl
usemtl palette

# normals
vn -1 0 0
vn 1 0 0
vn 0 0 1
vn 0 0 -1
vn 0 -1 0
vn 0 1 0

# texcoords
vt 0.869141 0.5
vt 0.900391 0.5
vt 0.931641 0.5
vt 0.935547 0.5
vt 0.962891 0.5
vt 0.966797 0.5

# verts
v -9 8 10
v -9 8 8
v -9 13 10
v -9 13 8
v -8 6 10
v -8 6 8
v -8 8 10
v -8 8 8
v -8 13 10
v -8 13 8
v -8 15 10
v -8 15 8
v -7 4 10
v -7 4 8
v -7 6 10
v -7 6 8
v -7 15 10
v -7 15 8
v -7 17 10
v -7 17 8
v -5 3 10
v -5 3 8
v -5 4 10
v -5 4 8
v -5 17 10
v -5 17 8
v -5 18 10
v -5 18 8
v -3 2 10
v -3 2 8
v -3 3 10
v -3 3 8
v -3 18 10
v -3 18 8
v -3 19 10
v -3 19 8
v 2 2 10
v 2 2 8
v 2 3 10
v 2 3 8
v 2 18 10
v 2 18 8
v 2 19 10
v 2 19 8
v 4 3 10
v 4 3 8
v 4 4 10
v 4 4 8
v 4 17 10
v 4 17 8
v 4 18 10
v 4 18 8
v 6 4 10
v 6 4 8
v 6 5 10
v 6 5 8
v 6 6 10
v 6 6 8
v 6 15 10
v 6 15 8
v 6 16 10
v 6 16 8
v 6 17 10
v 6 17 8
v 7 6 10
v 7 6 8
v 7 7 10
v 7 7 8
v 7 8 10
v 7 8 8
v 7 13 10
v 7 13 8
v 7 14 10
v 7 14 8
v 7 15 10
v 7 15 8
v 8 8 10
v 8 8 8
v 8 13 10
v 8 13 8
v -9 8 10
v -9 13 10
v -8 6 10
v -8 8 10
v -8 13 10
v -8 15 10
v -7 4 10
v -7 6 10
v -7 7 10
v -7 8 10
v -7 13 10
v -7 14 10
v -7 15 10
v -7 17 10
v -6 5 10
v -6 6 10
v -6 7 10
v -6 8 10
v -6 13 10
v -6 14 10
v -6 15 10
v -6 16 10
v -5 3 10
v -5 4 10
v -5 5 10
v -5 6 10
v -5 15 10
v -5 16 10
v -5 17 10
v -5 18 10
v -4 4 10
v -4 5 10
v -4 16 10
v -4 17 10
v -3 2 10
v -3 3 10
v -3 4 10
v -3 5 10
v -3 7 10
v -3 8 10
v -3 11 10
v -3 12 10
v -3 16 10
v -3 17 10
v -3 18 10
v -3 19 10
v -2 8 10
v -2 9 10
v -2 12 10
v -2 13 10
v -1 9 10
v -1 10 10
v -1 13 10
v -1 14 10
v 0 8 10
v 0 9 10
v 0 10 10
v 0 12 10
v 0 13 10
v 0 14 10
v 1 2 10
v 1 3 10
v 1 4 10
v 1 5 10
v 1 7 10
v 1 8 10
v 1 9 10
v 1 11 10
v 1 12 10
v 1 13 10
v 1 16 10
v 1 17 10
v 1 18 10
v 1 19 10
v 2 2 10
v 2 3 10
v 2 4 10
v 2 5 10
v 2 7 10
v 2 8 10
v 2 11 10
v 2 12 10
v 2 16 10
v 2 17 10
v 2 18 10
v 2 19 10
v 3 3 10
v 3 4 10
v 3 5 10
v 3 6 10
v 3 15 10
v 3 16 10
v 3 17 10
v 3 18 10
v 4 3 10
v 4 4 10
v 4 5 10
v 4 6 10
v 4 8 10
v 4 13 10
v 4 15 10
v 4 16 10
v 4 17 10
v 4 18 10
v 5 4 10
v 5 5 10
v 5 6 10
v 5 8 10
v 5 13 10
v 5 15 10
v 5 16 10
v 5 17 10
v 6 4 10
v 6 5 10
v 6 6 10
v 6 7 10
v 6 8 10
v 6 13 10
v 6 14 10
v 6 15 10
v 6 16 10
v 6 17 10
v 7 6 10
v 7 7 10
v 7 8 10
v 7 13 10
v 7 14 10
v 7 15 10
v 8 8 10
v 8 13 10
v -9 8 8
v -9 13 8
v -8 6 8
v -8 8 8
v -8 13 8
v -8 15 8
v -7 4 8
v -7 6 8
v -7 7 8
v -7 8 8
v -7 13 8
v -7 14 8
v -7 15 8
v -7 17 8
v -6 5 8
v -6 6 8
v -6 7 8
v -6 8 8
v -6 13 8
v -6 14 8
v -6 15 8
v -6 16 8
v -5 3 8
v -5 4 8
v -5 5 8
v -5 6 8
v -5 15 8
v -5 16 8
v -5 17 8
v -5 18 8
v -4 4 8
v -4 5 8
v -4 16 8
v -4 17 8
v -3 2 8
v -3 3 8
v -3 4 8
v -3 5 8
v -3 7 8
v -3 8 8
v -3 11 8
v -3 12 8
v -3 16 8
v -3 17 8
v -3 18 8
v -3 19 8
v -2 8 8
v -2 9 8
v -2 12 8
v -2 13 8
v -1 9 8
v -1 10 8
v -1 13 8
v -1 14 8
v 0 8 8
v 0 9 8
v 0 10 8
v 0 12 8
v 0 13 8
v 0 14 8
v 1 2 8
v 1 3 8
v 1 4 8
v 1 5 8
v 1 7 8
v 1 8 8
v 1 9 8
v 1 11 8
v 1 12 8
v 1 13 8
v 1 16 8
v 1 17 8
v 1 18 8
v 1 19 8
v 2 2 8
v 2 3 8
v 2 4 8
v 2 5 8
v 2 7 8
v 2 8 8
v 2 11 8
v 2 12 8
v 2 16 8
v 2 17 8
v 2 18 8
v 2 19 8
v 3 3 8
v 3 4 8
v 3 5 8
v 3 6 8
v 3 15 8
v 3 16 8
v 3 17 8
v 3 18 8
v 4 3 8
v 4 4 8
v 4 5 8
v 4 6 8
v 4 8 8
v 4 13 8
v 4 15 8
v 4 16 8
v 4 17 8
v 4 18 8
v 5 4 8
v 5 5 8
v 5 6 8
v 5 8 8
v 5 13 8
v 5 15 8
v 5 16 8
v 5 17 8
v 6 4 8
v 6 5 8
v 6 6 8
v 6 7 8
v 6 8 8
v 6 13 8
v 6 14 8
v 6 15 8
v 6 16 8
v 6 17 8
v 7 6 8
v 7 7 8
v 7 8 8
v 7 13 8
v 7 14 8
v 7 15 8
v 8 8 8
v 8 13 8
v -3 2 10
v 1 2 10
v 2 2 10
v -3 2 8
v 1 2 8
v 2 2 8
v -5 3 10
v -3 3 10
v 2 3 10
v 3 3 10
v 4 3 10
v -5 3 8
v -3 3 8
v 2 3 8
v 3 3 8
v 4 3 8
v -7 4 10
v -5 4 10
v 4 4 10
v 5 4 10
v 6 4 10
v -7 4 8
v -5 4 8
v 4 4 8
v 5 4 8
v 6 4 8
v -8 6 10
v -7 6 10
v 6 6 10
v 7 6 10
v -8 6 8
v -7 6 8
v 6 6 8
v 7 6 8
v -9 8 10
v -8 8 10
v 7 8 10
v 8 8 10
v -9 8 8
v -8 8 8
v 7 8 8
v 8 8 8
v -9 13 10
v -8 13 10
v 7 13 10
v 8 13 10
v -9 13 8
v -8 13 8
v 7 13 8
v 8 13 8
v -8 15 10
v -7 15 10
v 6 15 10
v 7 15 10
v -8 15 8
v -7 15 8
v 6 15 8
v 7 15 8
v -7 17 10
v -5 17 10
v 4 17 10
v 5 17 10
v 6 17 10
v -7 17 8
v -5 17 8
v 4 17 8
v 5 17 8
v 6 17 8
v -5 18 10
v -3 18 10
v 2 18 10
v 3 18 10
v 4 18 10
v -5 18 8
v -3 18 8
v 2 18 8
v 3 18 8
v 4 18 8
v -3 19 10
v 1 19 10
v 2 19 10
v -3 19 8
v 1 19 8
v 2 19 8

# faces
f 3/5/1 2/5/1 1/5/1
f 4/5/1 2/5/1 3/5/1
f 7/5/1 6/5/1 5/5/1
f 8/5/1 6/5/1 7/5/1
f 11/5/1 10/5/1 9/5/1
f 12/5/1 10/5/1 11/5/1
f 15/5/1 14/5/1 13/5/1
f 16/5/1 14/5/1 15/5/1
f 19/5/1 18/5/1 17/5/1
f 20/5/1 18/5/1 19/5/1
f 23/5/1 22/5/1 21/5/1
f 24/5/1 22/5/1 23/5/1
f 27/5/1 26/5/1 25/5/1
f 28/5/1 26/5/1 27/5/1
f 31/5/1 30/5/1 29/5/1
f 32/5/1 30/5/1 31/5/1
f 35/5/1 34/5/1 33/5/1
f 36/5/1 34/5/1 35/5/1
f 37/6/2 38/6/2 39/6/2
f 39/6/2 38/6/2 40/6/2
f 41/6/2 42/6/2 43/6/2
f 43/6/2 42/6/2 44/6/2
f 45/6/2 46/6/2 47/6/2
f 47/6/2 46/6/2 48/6/2
f 49/6/2 50/6/2 51/6/2
f 51/6/2 50/6/2 52/6/2
f 53/6/2 54/6/2 55/6/2
f 55/6/2 54/6/2 56/6/2
f 55/5/2 56/5/2 57/5/2
f 57/5/2 56/5/2 58/5/2
f 59/5/2 60/5/2 61/5/2
f 61/5/2 60/5/2 62/5/2
f 61/6/2 62/6/2 63/6/2
f 63/6/2 62/6/2 64/6/2
f 65/6/2 66/6/2 67/6/2
f 67/6/2 66/6/2 68/6/2
f 67/5/2 68/5/2 69/5/2
f 69/5/2 68/5/2 70/5/2
f 71/5/2 72/5/2 73/5/2
f 73/5/2 72/5/2 74/5/2
f 73/6/2 74/6/2 75/6/2
f 75/6/2 74/6/2 76/6/2
f 77/6/2 78/6/2 79/6/2
f 79/6/2 78/6/2 80/6/2
f 84/5/3 82/5/3 81/5/3
f 85/5/3 82/5/3 84/5/3
f 88/5/3 84/5/3 83/5/3
f 89/5/3 84/5/3 88/5/3
f 90/6/3 85/6/3 84/6/3
f 90/5/3 84/5/3 89/5/3
f 91/5/3 86/5/3 85/5/3
f 91/6/3 85/6/3 90/6/3
f 92/5/3 86/5/3 91/5/3
f 93/5/3 86/5/3 92/5/3
f 95/5/3 89/5/3 88/5/3
f 95/5/3 88/5/3 87/5/3
f 96/5/3 89/5/3 95/5/3
f 97/6/3 90/6/3 89/6/3
f 97/5/3 89/5/3 96/5/3
f 98/3/3 91/3/3 90/3/3
f 98/6/3 90/6/3 97/6/3
f 99/6/3 92/6/3 91/6/3
f 99/3/3 91/3/3 98/3/3
f 100/5/3 94/5/3 93/5/3
f 100/6/3 92/6/3 99/6/3
f 100/5/3 93/5/3 92/5/3
f 101/5/3 94/5/3 100/5/3
f 102/5/3 94/5/3 101/5/3
f 104/5/3 95/5/3 87/5/3
f 105/6/3 96/6/3 95/6/3
f 105/5/3 95/5/3 104/5/3
f 106/3/3 99/3/3 98/3/3
f 106/6/3 96/6/3 105/6/3
f 106/3/3 97/3/3 96/3/3
f 106/3/3 98/3/3 97/3/3
f 106/3/3 100/3/3 99/3/3
f 106/3/3 101/3/3 100/3/3
f 107/6/3 102/6/3 101/6/3
f 107/3/3 101/3/3 106/3/3
f 108/5/3 94/5/3 102/5/3
f 108/6/3 102/6/3 107/6/3
f 109/5/3 94/5/3 108/5/3
f 111/5/3 104/5/3 103/5/3
f 111/5/3 105/5/3 104/5/3
f 112/3/3 107/3/3 106/3/3
f 112/5/3 105/5/3 111/5/3
f 112/3/3 106/3/3 105/3/3
f 112/3/3 108/3/3 107/3/3
f 113/5/3 110/5/3 109/5/3
f 113/3/3 108/3/3 112/3/3
f 113/5/3 109/5/3 108/5/3
f 114/5/3 110/5/3 113/5/3
f 116/5/3 111/5/3 103/5/3
f 117/6/3 112/6/3 111/6/3
f 117/5/3 111/5/3 116/5/3
f 118/3/3 113/3/3 112/3/3
f 118/6/3 112/6/3 117/6/3
f 119/3/3 113/3/3 118/3/3
f 120/3/3 113/3/3 119/3/3
f 121/3/3 113/3/3 120/3/3
f 122/3/3 113/3/3 121/3/3
f 123/6/3 114/6/3 113/6/3
f 123/3/3 113/3/3 122/3/3
f 124/5/3 110/5/3 114/5/3
f 124/6/3 114/6/3 123/6/3
f 125/5/3 110/5/3 124/5/3
f 127/2/3 120/2/3 119/2/3
f 127/3/3 121/3/3 120/3/3
f 128/3/3 121/3/3 127/3/3
f 129/3/3 123/3/3 122/3/3
f 129/2/3 122/2/3 121/2/3
f 129/3/3 124/3/3 123/3/3
f 130/3/3 124/3/3 129/3/3
f 131/3/3 121/3/3 128/3/3
f 131/2/3 128/2/3 127/2/3
f 132/3/3 121/3/3 131/3/3
f 133/3/3 124/3/3 130/3/3
f 133/2/3 130/2/3 129/2/3
f 134/3/3 124/3/3 133/3/3
f 135/2/3 127/2/3 119/2/3
f 135/2/3 131/2/3 127/2/3
f 136/1/3 132/1/3 131/1/3
f 136/2/3 131/2/3 135/2/3
f 137/3/3 121/3/3 132/3/3
f 137/1/3 132/1/3 136/1/3
f 138/2/3 129/2/3 121/2/3
f 138/2/3 133/2/3 129/2/3
f 139/1/3 134/1/3 133/1/3
f 139/2/3 133/2/3 138/2/3
f 140/3/3 124/3/3 134/3/3
f 140/1/3 134/1/3 139/1/3
f 141/5/3 116/5/3 115/5/3
f 141/5/3 117/5/3 116/5/3
f 142/5/3 117/5/3 141/5/3
f 143/3/3 118/3/3 117/3/3
f 143/5/3 117/5/3 142/5/3
f 143/3/3 119/3/3 118/3/3
f 144/3/3 119/3/3 143/3/3
f 145/2/3 135/2/3 119/2/3
f 145/3/3 119/3/3 144/3/3
f 146/1/3 136/1/3 135/1/3
f 146/2/3 135/2/3 145/2/3
f 147/3/3 137/3/3 136/3/3
f 147/1/3 136/1/3 146/1/3
f 148/3/3 121/3/3 137/3/3
f 148/3/3 137/3/3 147/3/3
f 148/2/3 138/2/3 121/2/3
f 149/1/3 139/1/3 138/1/3
f 149/2/3 138/2/3 148/2/3
f 150/3/3 140/3/3 139/3/3
f 150/1/3 139/1/3 149/1/3
f 151/3/3 124/3/3 140/3/3
f 151/3/3 140/3/3 150/3/3
f 152/5/3 126/5/3 125/5/3
f 152/3/3 124/3/3 151/3/3
f 152/5/3 125/5/3 124/5/3
f 153/5/3 126/5/3 152/5/3
f 154/5/3 126/5/3 153/5/3
f 155/6/3 142/6/3 141/6/3
f 156/5/3 143/5/3 142/5/3
f 156/6/3 142/6/3 155/6/3
f 157/4/3 144/4/3 143/4/3
f 157/5/3 143/5/3 156/5/3
f 158/3/3 145/3/3 144/3/3
f 158/4/3 144/4/3 157/4/3
f 159/1/3 146/1/3 145/1/3
f 159/3/3 145/3/3 158/3/3
f 160/3/3 148/3/3 147/3/3
f 160/1/3 146/1/3 159/1/3
f 160/3/3 147/3/3 146/3/3
f 161/1/3 149/1/3 148/1/3
f 161/3/3 148/3/3 160/3/3
f 162/3/3 150/3/3 149/3/3
f 162/1/3 149/1/3 161/1/3
f 162/3/3 151/3/3 150/3/3
f 163/4/3 152/4/3 151/4/3
f 163/3/3 151/3/3 162/3/3
f 164/5/3 153/5/3 152/5/3
f 164/4/3 152/4/3 163/4/3
f 165/6/3 154/6/3 153/6/3
f 165/5/3 153/5/3 164/5/3
f 166/6/3 154/6/3 165/6/3
f 167/5/3 157/5/3 156/5/3
f 167/5/3 158/5/3 157/5/3
f 168/5/3 158/5/3 167/5/3
f 169/3/3 161/3/3 160/3/3
f 169/5/3 158/5/3 168/5/3
f 169/3/3 160/3/3 159/3/3
f 169/3/3 163/3/3 162/3/3
f 169/3/3 162/3/3 161/3/3
f 169/3/3 159/3/3 158/3/3
f 170/3/3 163/3/3 169/3/3
f 171/3/3 163/3/3 170/3/3
f 172/5/3 165/5/3 164/5/3
f 172/3/3 163/3/3 171/3/3
f 172/5/3 164/5/3 163/5/3
f 173/5/3 165/5/3 172/5/3
f 174/5/3 165/5/3 173/5/3
f 175/6/3 168/6/3 167/6/3
f 176/5/3 169/5/3 168/5/3
f 176/6/3 168/6/3 175/6/3
f 177/4/3 170/4/3 169/4/3
f 177/5/3 169/5/3 176/5/3
f 178/3/3 171/3/3 170/3/3
f 178/4/3 170/4/3 177/4/3
f 179/3/3 171/3/3 178/3/3
f 180/3/3 171/3/3 179/3/3
f 181/4/3 172/4/3 171/4/3
f 181/3/3 171/3/3 180/3/3
f 182/5/3 173/5/3 172/5/3
f 182/4/3 172/4/3 181/4/3
f 183/6/3 174/6/3 173/6/3
f 183/5/3 173/5/3 182/5/3
f 184/6/3 174/6/3 183/6/3
f 185/5/3 177/5/3 176/5/3
f 185/5/3 178/5/3 177/5/3
f 186/5/3 178/5/3 185/5/3
f 187/4/3 179/4/3 178/4/3
f 187/5/3 178/5/3 186/5/3
f 188/3/3 180/3/3 179/3/3
f 188/4/3 179/4/3 187/4/3
f 189/4/3 181/4/3 180/4/3
f 189/3/3 180/3/3 188/3/3
f 190/5/3 183/5/3 182/5/3
f 190/4/3 181/4/3 189/4/3
f 190/5/3 182/5/3 181/5/3
f 191/5/3 183/5/3 190/5/3
f 192/5/3 183/5/3 191/5/3
f 193/6/3 186/6/3 185/6/3
f 194/5/3 187/5/3 186/5/3
f 194/6/3 186/6/3 193/6/3
f 194/5/3 188/5/3 187/5/3
f 195/5/3 188/5/3 194/5/3
f 196/5/3 188/5/3 195/5/3
f 197/4/3 189/4/3 188/4/3
f 197/5/3 188/5/3 196/5/3
f 198/5/3 190/5/3 189/5/3
f 198/4/3 189/4/3 197/4/3
f 198/5/3 191/5/3 190/5/3
f 199/5/3 191/5/3 198/5/3
f 200/5/3 191/5/3 199/5/3
f 201/6/3 192/6/3 191/6/3
f 201/5/3 191/5/3 200/5/3
f 202/6/3 192/6/3 201/6/3
f 203/6/3 196/6/3 195/6/3
f 204/5/3 197/5/3 196/5/3
f 204/6/3 196/6/3 203/6/3
f 204/5/3 199/5/3 198/5/3
f 204/5/3 198/5/3 197/5/3
f 205/5/3 199/5/3 204/5/3
f 206/5/3 199/5/3 205/5/3
f 207/6/3 200/6/3 199/6/3
f 207/5/3 199/5/3 206/5/3
f 208/6/3 200/6/3 207/6/3
f 209/6/3 206/6/3 205/6/3
f 210/6/3 206/6/3 209/6/3
f 211/5/4 212/5/4 214/5/4
f 214/5/4 212/5/4 215/5/4
f 213/5/4 214/5/4 218/5/4
f 218/5/4 214/5/4 219/5/4
f 214/6/4 215/6/4 220/6/4
f 219/5/4 214/5/4 220/5/4
f 215/5/4 216/5/4 221/5/4
f 220/6/4 215/6/4 221/6/4
f 221/5/4 216/5/4 222/5/4
f 222/5/4 216/5/4 223/5/4
f 218/5/4 219/5/4 225/5/4
f 217/5/4 218/5/4 225/5/4
f 225/5/4 219/5/4 226/5/4
f 219/6/4 220/6/4 227/6/4
f 226/5/4 219/5/4 227/5/4
f 220/3/4 221/3/4 228/3/4
f 227/6/4 220/6/4 228/6/4
f 221/6/4 222/6/4 229/6/4
f 228/3/4 221/3/4 229/3/4
f 223/5/4 224/5/4 230/5/4
f 229/6/4 222/6/4 230/6/4
f 222/5/4 223/5/4 230/5/4
f 230/5/4 224/5/4 231/5/4
f 231/5/4 224/5/4 232/5/4
f 217/5/4 225/5/4 234/5/4
f 225/6/4 226/6/4 235/6/4
f 234/5/4 225/5/4 235/5/4
f 228/3/4 229/3/4 236/3/4
f 235/6/4 226/6/4 236/6/4
f 226/3/4 227/3/4 236/3/4
f 227/3/4 228/3/4 236/3/4
f 229/3/4 230/3/4 236/3/4
f 230/3/4 231/3/4 236/3/4
f 231/6/4 232/6/4 237/6/4
f 236/3/4 231/3/4 237/3/4
f 232/5/4 224/5/4 238/5/4
f 237/6/4 232/6/4 238/6/4
f 238/5/4 224/5/4 239/5/4
f 233/5/4 234/5/4 241/5/4
f 234/5/4 235/5/4 241/5/4
f 236/3/4 237/3/4 242/3/4
f 241/5/4 235/5/4 242/5/4
f 235/3/4 236/3/4 242/3/4
f 237/3/4 238/3/4 242/3/4
f 239/5/4 240/5/4 243/5/4
f 242/3/4 238/3/4 243/3/4
f 238/5/4 239/5/4 243/5/4
f 243/5/4 240/5/4 244/5/4
f 233/5/4 241/5/4 246/5/4
f 241/6/4 242/6/4 247/6/4
f 246/5/4 241/5/4 247/5/4
f 242/3/4 243/3/4 248/3/4
f 247/6/4 242/6/4 248/6/4
f 248/3/4 243/3/4 249/3/4
f 249/3/4 243/3/4 250/3/4
f 250/3/4 243/3/4 251/3/4
f 251/3/4 243/3/4 252/3/4
f 243/6/4 244/6/4 253/6/4
f 252/3/4 243/3/4 253/3/4
f 244/5/4 240/5/4 254/5/4
f 253/6/4 244/6/4 254/6/4
f 254/5/4 240/5/4 255/5/4
f 249/2/4 250/2/4 257/2/4
f 250/3/4 251/3/4 257/3/4
f 257/3/4 251/3/4 258/3/4
f 252/3/4 253/3/4 259/3/4
f 251/2/4 252/2/4 259/2/4
f 253/3/4 254/3/4 259/3/4
f 259/3/4 254/3/4 260/3/4
f 258/3/4 251/3/4 261/3/4
f 257/2/4 258/2/4 261/2/4
f 261/3/4 251/3/4 262/3/4
f 260/3/4 254/3/4 263/3/4
f 259/2/4 260/2/4 263/2/4
f 263/3/4 254/3/4 264/3/4
f 249/2/4 257/2/4 265/2/4
f 257/2/4 261/2/4 265/2/4
f 261/1/4 262/1/4 266/1/4
f 265/2/4 261/2/4 266/2/4
f 262/3/4 251/3/4 267/3/4
f 266/1/4 262/1/4 267/1/4
f 251/2/4 259/2/4 268/2/4
f 259/2/4 263/2/4 268/2/4
f 263/1/4 264/1/4 269/1/4
f 268/2/4 263/2/4 269/2/4
f 264/3/4 254/3/4 270/3/4
f 269/1/4 264/1/4 270/1/4
f 245/5/4 246/5/4 271/5/4
f 246/5/4 247/5/4 271/5/4
f 271/5/4 247/5/4 272/5/4
f 247/3/4 248/3/4 273/3/4
f 272/5/4 247/5/4 273/5/4
f 248/3/4 249/3/4 273/3/4
f 273/3/4 249/3/4 274/3/4
f 249/2/4 265/2/4 275/2/4
f 274/3/4 249/3/4 275/3/4
f 265/1/4 266/1/4 276/1/4
f 275/2/4 265/2/4 276/2/4
f 266/3/4 267/3/4 277/3/4
f 276/1/4 266/1/4 277/1/4
f 267/3/4 251/3/4 278/3/4
f 277/3/4 267/3/4 278/3/4
f 251/2/4 268/2/4 278/2/4
f 268/1/4 269/1/4 279/1/4
f 278/2/4 268/2/4 279/2/4
f 269/3/4 270/3/4 280/3/4
f 279/1/4 269/1/4 280/1/4
f 270/3/4 254/3/4 281/3/4
f 280/3/4 270/3/4 281/3/4
f 255/5/4 256/5/4 282/5/4
f 281/3/4 254/3/4 282/3/4
f 254/5/4 255/5/4 282/5/4
f 282/5/4 256/5/4 283/5/4
f 283/5/4 256/5/4 284/5/4
f 271/6/4 272/6/4 285/6/4
f 272/5/4 273/5/4 286/5/4
f 285/6/4 272/6/4 286/6/4
f 273/4/4 274/4/4 287/4/4
f 286/5/4 273/5/4 287/5/4
f 274/3/4 275/3/4 288/3/4
f 287/4/4 274/4/4 288/4/4
f 275/1/4 276/1/4 289/1/4
f 288/3/4 275/3/4 289/3/4
f 277/3/4 278/3/4 290/3/4
f 289/1/4 276/1/4 290/1/4
f 276/3/4 277/3/4 290/3/4
f 278/1/4 279/1/4 291/1/4
f 290/3/4 278/3/4 291/3/4
f 279/3/4 280/3/4 292/3/4
f 291/1/4 279/1/4 292/1/4
f 280/3/4 281/3/4 292/3/4
f 281/4/4 282/4/4 293/4/4
f 292/3/4 281/3/4 293/3/4
f 282/5/4 283/5/4 294/5/4
f 293/4/4 282/4/4 294/4/4
f 283/6/4 284/6/4 295/6/4
f 294/5/4 283/5/4 295/5/4
f 295/6/4 284/6/4 296/6/4
f 286/5/4 287/5/4 297/5/4
f 287/5/4 288/5/4 297/5/4
f 297/5/4 288/5/4 298/5/4
f 290/3/4 291/3/4 299/3/4
f 298/5/4 288/5/4 299/5/4
f 289/3/4 290/3/4 299/3/4
f 292/3/4 293/3/4 299/3/4
f 291/3/4 292/3/4 299/3/4
f 288/3/4 289/3/4 299/3/4
f 299/3/4 293/3/4 300/3/4
f 300/3/4 293/3/4 301/3/4
f 294/5/4 295/5/4 302/5/4
f 301/3/4 293/3/4 302/3/4
f 293/5/4 294/5/4 302/5/4
f 302/5/4 295/5/4 303/5/4
f 303/5/4 295/5/4 304/5/4
f 297/6/4 298/6/4 305/6/4
f 298/5/4 299/5/4 306/5/4
f 305/6/4 298/6/4 306/6/4
f 299/4/4 300/4/4 307/4/4
f 306/5/4 299/5/4 307/5/4
f 300/3/4 301/3/4 308/3/4
f 307/4/4 300/4/4 308/4/4
f 308/3/4 301/3/4 309/3/4
f 309/3/4 301/3/4 310/3/4
f 301/4/4 302/4/4 311/4/4
f 310/3/4 301/3/4 311/3/4
f 302/5/4 303/5/4 312/5/4
f 311/4/4 302/4/4 312/4/4
f 303/6/4 304/6/4 313/6/4
f 312/5/4 303/5/4 313/5/4
f 313/6/4 304/6/4 314/6/4
f 306/5/4 307/5/4 315/5/4
f 307/5/4 308/5/4 315/5/4
f 315/5/4 308/5/4 316/5/4
f 308/4/4 309/4/4 317/4/4
f 316/5/4 308/5/4 317/5/4
f 309/3/4 310/3/4 318/3/4
f 317/4/4 309/4/4 318/4/4
f 310/4/4 311/4/4 319/4/4
f 318/3/4 310/3/4 319/3/4
f 312/5/4 313/5/4 320/5/4
f 319/4/4 311/4/4 320/4/4
f 311/5/4 312/5/4 320/5/4
f 320/5/4 313/5/4 321/5/4
f 321/5/4 313/5/4 322/5/4
f 315/6/4 316/6/4 323/6/4
f 316/5/4 317/5/4 324/5/4
f 323/6/4 316/6/4 324/6/4
f 317/5/4 318/5/4 324/5/4
f 324/5/4 318/5/4 325/5/4
f 325/5/4 318/5/4 326/5/4
f 318/4/4 319/4/4 327/4/4
f 326/5/4 318/5/4 327/5/4
f 319/5/4 320/5/4 328/5/4
f 327/4/4 319/4/4 328/4/4
f 320/5/4 321/5/4 328/5/4
f 328/5/4 321/5/4 329/5/4
f 329/5/4 321/5/4 330/5/4
f 321/6/4 322/6/4 331/6/4
f 330/5/4 321/5/4 331/5/4
f 331/6/4 322/6/4 332/6/4
f 325/6/4 326/6/4 333/6/4
f 326/5/4 327/5/4 334/5/4
f 333/6/4 326/6/4 334/6/4
f 328/5/4 329/5/4 334/5/4
f 327/5/4 328/5/4 334/5/4
f 334/5/4 329/5/4 335/5/4
f 335/5/4 329/5/4 336/5/4
f 329/6/4 330/6/4 337/6/4
f 336/5/4 329/5/4 337/5/4
f 337/6/4 330/6/4 338/6/4
f 335/6/4 336/6/4 339/6/4
f 339/6/4 336/6/4 340/6/4
f 344/5/5 342/5/5 341/5/5
f 345/6/5 343/6/5 342/6/5
f 345/5/5 342/5/5 344/5/5
f 346/6/5 343/6/5 345/6/5
f 352/5/5 348/5/5 347/5/5
f 353/5/5 348/5/5 352/5/5
f 354/5/5 350/5/5 349/5/5
f 355/6/5 351/6/5 350/6/5
f 355/5/5 350/5/5 354/5/5
f 356/6/5 351/6/5 355/6/5
f 362/5/5 358/5/5 357/5/5
f 363/5/5 358/5/5 362/5/5
f 364/5/5 360/5/5 359/5/5
f 365/6/5 361/6/5 360/6/5
f 365/5/5 360/5/5 364/5/5
f 366/6/5 361/6/5 365/6/5
f 371/5/5 368/5/5 367/5/5
f 372/5/5 368/5/5 371/5/5
f 373/6/5 370/6/5 369/6/5
f 374/6/5 370/6/5 373/6/5
f 379/5/5 376/5/5 375/5/5
f 380/5/5 376/5/5 379/5/5
f 381/6/5 378/6/5 377/6/5
f 382/6/5 378/6/5 381/6/5
f 383/5/6 384/5/6 387/5/6
f 387/5/6 384/5/6 388/5/6
f 385/6/6 386/6/6 389/6/6
f 389/6/6 386/6/6 390/6/6
f 391/5/6 392/5/6 395/5/6
f 395/5/6 392/5/6 396/5/6
f 393/6/6 394/6/6 397/6/6
f 397/6/6 394/6/6 398/6/6
f 399/5/6 400/5/6 404/5/6
f 404/5/6 400/5/6 405/5/6
f 401/5/6 402/5/6 406/5/6
f 402/6/6 403/6/6 407/6/6
f 406/5/6 402/5/6 407/5/6
f 407/6/6 403/6/6 408/6/6
f 409/5/6 410/5/6 414/5/6
f 414/5/6 410/5/6 415/5/6
f 411/5/6 412/5/6 416/5/6
f 412/6/6 413/6/6 417/6/6
f 416/5/6 412/5/6 417/5/6
f 417/6/6 413/6/6 418/6/6
f 419/5/6 420/5/6 422/5/6
f 420/6/6 421/6/6 423/6/6
f 422/5/6 420/5/6 423/5/6
f 423/6/6 421/6/6 424/6/6
