# MagicaVoxel @ Ephtracy

# group
g powerup_fire

# material
mtllib powerup_fire.mtl
usemtl palette

# normals
vn -1 0 0
vn 1 0 0
vn 0 0 1
vn 0 0 -1
vn 0 -1 0
vn 0 1 0

# texcoords
vt 0.869141 0.5
vt 0.900391 0.5
vt 0.931641 0.5
vt 0.935547 0.5
vt 0.962891 0.5
vt 0.966797 0.5

# verts
v -9 8 10
v -9 8 8
v -9 13 10
v -9 13 8
v -8 6 10
v -8 6 8
v -8 8 10
v -8 8 8
v -8 13 10
v -8 13 8
v -8 15 10
v -8 15 8
v -7 4 10
v -7 4 8
v -7 6 10
v -7 6 8
v -7 15 10
v -7 15 8
v -7 17 10
v -7 17 8
v -5 3 10
v -5 3 8
v -5 4 10
v -5 4 8
v -5 17 10
v -5 17 8
v -5 18 10
v -5 18 8
v -3 2 10
v -3 2 8
v -3 3 10
v -3 3 8
v -3 18 10
v -3 18 8
v -3 19 10
v -3 19 8
v 2 2 10
v 2 2 8
v 2 3 10
v 2 3 8
v 2 18 10
v 2 18 8
v 2 19 10
v 2 19 8
v 4 3 10
v 4 3 8
v 4 4 10
v 4 4 8
v 4 17 10
v 4 17 8
v 4 18 10
v 4 18 8
v 6 4 10
v 6 4 8
v 6 5 10
v 6 5 8
v 6 6 10
v 6 6 8
v 6 15 10
v 6 15 8
v 6 16 10
v 6 16 8
v 6 17 10
v 6 17 8
v 7 6 10
v 7 6 8
v 7 7 10
v 7 7 8
v 7 8 10
v 7 8 8
v 7 13 10
v 7 13 8
v 7 14 10
v 7 14 8
v 7 15 10
v 7 15 8
v 8 8 10
v 8 8 8
v 8 13 10
v 8 13 8
v -9 8 10
v -9 13 10
v -8 6 10
v -8 8 10
v -8 13 10
v -8 15 10
v -7 4 10
v -7 6 10
v -7 7 10
v -7 8 10
v -7 13 10
v -7 14 10
v -7 15 10
v -7 17 10
v -6 5 10
v -6 6 10
v -6 7 10
v -6 8 10
v -6 13 10
v -6 14 10
v -6 15 10
v -6 16 10
v -5 3 10
v -5 4 10
v -5 5 10
v -5 6 10
v -5 15 10
v -5 16 10
v -5 17 10
v -5 18 10
v -4 4 10
v -4 5 10
v -4 9 10
v -4 11 10
v -4 16 10
v -4 17 10
v -3 2 10
v -3 3 10
v -3 4 10
v -3 5 10
v -3 8 10
v -3 9 10
v -3 10 10
v -3 11 10
v -3 12 10
v -3 13 10
v -3 16 10
v -3 17 10
v -3 18 10
v -3 19 10
v -2 7 10
v -2 8 10
v -2 9 10
v -2 10 10
v -2 12 10
v -2 13 10
v -2 14 10
v -1 9 10
v -1 10 10
v -1 12 10
v -1 13 10
v -1 14 10
v -1 15 10
v 0 7 10
v 0 8 10
v 0 9 10
v 0 10 10
v 0 11 10
v 0 12 10
v 0 13 10
v 0 15 10
v 1 2 10
v 1 3 10
v 1 4 10
v 1 5 10
v 1 7 10
v 1 8 10
v 1 9 10
v 1 10 10
v 1 11 10
v 1 12 10
v 1 16 10
v 1 17 10
v 1 18 10
v 1 19 10
v 2 2 10
v 2 3 10
v 2 4 10
v 2 5 10
v 2 8 10
v 2 9 10
v 2 11 10
v 2 12 10
v 2 16 10
v 2 17 10
v 2 18 10
v 2 19 10
v 3 3 10
v 3 4 10
v 3 5 10
v 3 6 10
v 3 9 10
v 3 11 10
v 3 15 10
v 3 16 10
v 3 17 10
v 3 18 10
v 4 3 10
v 4 4 10
v 4 5 10
v 4 6 10
v 4 8 10
v 4 13 10
v 4 15 10
v 4 16 10
v 4 17 10
v 4 18 10
v 5 4 10
v 5 5 10
v 5 6 10
v 5 8 10
v 5 13 10
v 5 15 10
v 5 16 10
v 5 17 10
v 6 4 10
v 6 5 10
v 6 6 10
v 6 7 10
v 6 8 10
v 6 13 10
v 6 14 10
v 6 15 10
v 6 16 10
v 6 17 10
v 7 6 10
v 7 7 10
v 7 8 10
v 7 13 10
v 7 14 10
v 7 15 10
v 8 8 10
v 8 13 10
v -9 8 8
v -9 13 8
v -8 6 8
v -8 8 8
v -8 13 8
v -8 15 8
v -7 4 8
v -7 6 8
v -7 7 8
v -7 8 8
v -7 13 8
v -7 14 8
v -7 15 8
v -7 17 8
v -6 5 8
v -6 6 8
v -6 7 8
v -6 8 8
v -6 13 8
v -6 14 8
v -6 15 8
v -6 16 8
v -5 3 8
v -5 4 8
v -5 5 8
v -5 6 8
v -5 15 8
v -5 16 8
v -5 17 8
v -5 18 8
v -4 4 8
v -4 5 8
v -4 9 8
v -4 11 8
v -4 16 8
v -4 17 8
v -3 2 8
v -3 3 8
v -3 4 8
v -3 5 8
v -3 8 8
v -3 9 8
v -3 10 8
v -3 11 8
v -3 12 8
v -3 13 8
v -3 16 8
v -3 17 8
v -3 18 8
v -3 19 8
v -2 7 8
v -2 8 8
v -2 9 8
v -2 10 8
v -2 12 8
v -2 13 8
v -2 14 8
v -1 9 8
v -1 10 8
v -1 12 8
v -1 13 8
v -1 14 8
v -1 15 8
v 0 7 8
v 0 8 8
v 0 9 8
v 0 10 8
v 0 11 8
v 0 12 8
v 0 13 8
v 0 15 8
v 1 2 8
v 1 3 8
v 1 4 8
v 1 5 8
v 1 7 8
v 1 8 8
v 1 9 8
v 1 10 8
v 1 11 8
v 1 12 8
v 1 16 8
v 1 17 8
v 1 18 8
v 1 19 8
v 2 2 8
v 2 3 8
v 2 4 8
v 2 5 8
v 2 8 8
v 2 9 8
v 2 11 8
v 2 12 8
v 2 16 8
v 2 17 8
v 2 18 8
v 2 19 8
v 3 3 8
v 3 4 8
v 3 5 8
v 3 6 8
v 3 9 8
v 3 11 8
v 3 15 8
v 3 16 8
v 3 17 8
v 3 18 8
v 4 3 8
v 4 4 8
v 4 5 8
v 4 6 8
v 4 8 8
v 4 13 8
v 4 15 8
v 4 16 8
v 4 17 8
v 4 18 8
v 5 4 8
v 5 5 8
v 5 6 8
v 5 8 8
v 5 13 8
v 5 15 8
v 5 16 8
v 5 17 8
v 6 4 8
v 6 5 8
v 6 6 8
v 6 7 8
v 6 8 8
v 6 13 8
v 6 14 8
v 6 15 8
v 6 16 8
v 6 17 8
v 7 6 8
v 7 7 8
v 7 8 8
v 7 13 8
v 7 14 8
v 7 15 8
v 8 8 8
v 8 13 8
v -3 2 10
v 1 2 10
v 2 2 10
v -3 2 8
v 1 2 8
v 2 2 8
v -5 3 10
v -3 3 10
v 2 3 10
v 3 3 10
v 4 3 10
v -5 3 8
v -3 3 8
v 2 3 8
v 3 3 8
v 4 3 8
v -7 4 10
v -5 4 10
v 4 4 10
v 5 4 10
v 6 4 10
v -7 4 8
v -5 4 8
v 4 4 8
v 5 4 8
v 6 4 8
v -8 6 10
v -7 6 10
v 6 6 10
v 7 6 10
v -8 6 8
v -7 6 8
v 6 6 8
v 7 6 8
v -9 8 10
v -8 8 10
v 7 8 10
v 8 8 10
v -9 8 8
v -8 8 8
v 7 8 8
v 8 8 8
v -9 13 10
v -8 13 10
v 7 13 10
v 8 13 10
v -9 13 8
v -8 13 8
v 7 13 8
v 8 13 8
v -8 15 10
v -7 15 10
v 6 15 10
v 7 15 10
v -8 15 8
v -7 15 8
v 6 15 8
v 7 15 8
v -7 17 10
v -5 17 10
v 4 17 10
v 5 17 10
v 6 17 10
v -7 17 8
v -5 17 8
v 4 17 8
v 5 17 8
v 6 17 8
v -5 18 10
v -3 18 10
v 2 18 10
v 3 18 10
v 4 18 10
v -5 18 8
v -3 18 8
v 2 18 8
v 3 18 8
v 4 18 8
v -3 19 10
v 1 19 10
v 2 19 10
v -3 19 8
v 1 19 8
v 2 19 8

# faces
f 3/5/1 2/5/1 1/5/1
f 4/5/1 2/5/1 3/5/1
f 7/5/1 6/5/1 5/5/1
f 8/5/1 6/5/1 7/5/1
f 11/5/1 10/5/1 9/5/1
f 12/5/1 10/5/1 11/5/1
f 15/5/1 14/5/1 13/5/1
f 16/5/1 14/5/1 15/5/1
f 19/5/1 18/5/1 17/5/1
f 20/5/1 18/5/1 19/5/1
f 23/5/1 22/5/1 21/5/1
f 24/5/1 22/5/1 23/5/1
f 27/5/1 26/5/1 25/5/1
f 28/5/1 26/5/1 27/5/1
f 31/5/1 30/5/1 29/5/1
f 32/5/1 30/5/1 31/5/1
f 35/5/1 34/5/1 33/5/1
f 36/5/1 34/5/1 35/5/1
f 37/6/2 38/6/2 39/6/2
f 39/6/2 38/6/2 40/6/2
f 41/6/2 42/6/2 43/6/2
f 43/6/2 42/6/2 44/6/2
f 45/6/2 46/6/2 47/6/2
f 47/6/2 46/6/2 48/6/2
f 49/6/2 50/6/2 51/6/2
f 51/6/2 50/6/2 52/6/2
f 53/6/2 54/6/2 55/6/2
f 55/6/2 54/6/2 56/6/2
f 55/5/2 56/5/2 57/5/2
f 57/5/2 56/5/2 58/5/2
f 59/5/2 60/5/2 61/5/2
f 61/5/2 60/5/2 62/5/2
f 61/6/2 62/6/2 63/6/2
f 63/6/2 62/6/2 64/6/2
f 65/6/2 66/6/2 67/6/2
f 67/6/2 66/6/2 68/6/2
f 67/5/2 68/5/2 69/5/2
f 69/5/2 68/5/2 70/5/2
f 71/5/2 72/5/2 73/5/2
f 73/5/2 72/5/2 74/5/2
f 73/6/2 74/6/2 75/6/2
f 75/6/2 74/6/2 76/6/2
f 77/6/2 78/6/2 79/6/2
f 79/6/2 78/6/2 80/6/2
f 84/5/3 82/5/3 81/5/3
f 85/5/3 82/5/3 84/5/3
f 88/5/3 84/5/3 83/5/3
f 89/5/3 84/5/3 88/5/3
f 90/6/3 85/6/3 84/6/3
f 90/5/3 84/5/3 89/5/3
f 91/5/3 86/5/3 85/5/3
f 91/6/3 85/6/3 90/6/3
f 92/5/3 86/5/3 91/5/3
f 93/5/3 86/5/3 92/5/3
f 95/5/3 89/5/3 88/5/3
f 95/5/3 88/5/3 87/5/3
f 96/5/3 89/5/3 95/5/3
f 97/6/3 90/6/3 89/6/3
f 97/5/3 89/5/3 96/5/3
f 98/3/3 91/3/3 90/3/3
f 98/6/3 90/6/3 97/6/3
f 99/6/3 92/6/3 91/6/3
f 99/3/3 91/3/3 98/3/3
f 100/5/3 94/5/3 93/5/3
f 100/6/3 92/6/3 99/6/3
f 100/5/3 93/5/3 92/5/3
f 101/5/3 94/5/3 100/5/3
f 102/5/3 94/5/3 101/5/3
f 104/5/3 95/5/3 87/5/3
f 105/6/3 96/6/3 95/6/3
f 105/5/3 95/5/3 104/5/3
f 106/3/3 99/3/3 98/3/3
f 106/6/3 96/6/3 105/6/3
f 106/3/3 97/3/3 96/3/3
f 106/3/3 98/3/3 97/3/3
f 106/3/3 100/3/3 99/3/3
f 106/3/3 101/3/3 100/3/3
f 107/6/3 102/6/3 101/6/3
f 107/3/3 101/3/3 106/3/3
f 108/5/3 94/5/3 102/5/3
f 108/6/3 102/6/3 107/6/3
f 109/5/3 94/5/3 108/5/3
f 111/5/3 104/5/3 103/5/3
f 111/5/3 105/5/3 104/5/3
f 112/3/3 107/3/3 106/3/3
f 112/5/3 105/5/3 111/5/3
f 112/3/3 106/3/3 105/3/3
f 112/3/3 108/3/3 107/3/3
f 113/3/3 108/3/3 112/3/3
f 114/3/3 108/3/3 113/3/3
f 115/5/3 110/5/3 109/5/3
f 115/3/3 108/3/3 114/3/3
f 115/5/3 109/5/3 108/5/3
f 116/5/3 110/5/3 115/5/3
f 118/5/3 111/5/3 103/5/3
f 119/6/3 112/6/3 111/6/3
f 119/5/3 111/5/3 118/5/3
f 120/3/3 113/3/3 112/3/3
f 120/6/3 112/6/3 119/6/3
f 121/3/3 113/3/3 120/3/3
f 122/2/3 114/2/3 113/2/3
f 122/3/3 113/3/3 121/3/3
f 123/2/3 114/2/3 122/2/3
f 124/3/3 115/3/3 114/3/3
f 124/2/3 114/2/3 123/2/3
f 125/3/3 115/3/3 124/3/3
f 126/3/3 115/3/3 125/3/3
f 127/6/3 116/6/3 115/6/3
f 127/3/3 115/3/3 126/3/3
f 128/5/3 110/5/3 116/5/3
f 128/6/3 116/6/3 127/6/3
f 129/5/3 110/5/3 128/5/3
f 131/3/3 121/3/3 120/3/3
f 131/3/3 120/3/3 119/3/3
f 132/2/3 123/2/3 122/2/3
f 132/3/3 121/3/3 131/3/3
f 132/2/3 122/2/3 121/2/3
f 133/2/3 123/2/3 132/2/3
f 134/1/3 124/1/3 123/1/3
f 134/2/3 123/2/3 133/2/3
f 134/1/3 125/1/3 124/1/3
f 135/2/3 126/2/3 125/2/3
f 135/1/3 125/1/3 134/1/3
f 136/3/3 127/3/3 126/3/3
f 136/2/3 126/2/3 135/2/3
f 136/3/3 128/3/3 127/3/3
f 137/3/3 128/3/3 136/3/3
f 138/1/3 134/1/3 133/1/3
f 138/2/3 132/2/3 131/2/3
f 138/2/3 133/2/3 132/2/3
f 139/3/3 135/3/3 134/3/3
f 139/1/3 134/1/3 138/1/3
f 140/1/3 136/1/3 135/1/3
f 140/3/3 135/3/3 139/3/3
f 141/2/3 137/2/3 136/2/3
f 141/1/3 136/1/3 140/1/3
f 142/3/3 128/3/3 137/3/3
f 142/2/3 137/2/3 141/2/3
f 143/3/3 128/3/3 142/3/3
f 144/2/3 138/2/3 131/2/3
f 144/3/3 131/3/3 119/3/3
f 145/2/3 138/2/3 144/2/3
f 146/3/3 141/3/3 140/3/3
f 146/2/3 138/2/3 145/2/3
f 146/3/3 140/3/3 139/3/3
f 146/3/3 139/3/3 138/3/3
f 147/3/3 141/3/3 146/3/3
f 148/3/3 141/3/3 147/3/3
f 149/3/3 141/3/3 148/3/3
f 150/1/3 143/1/3 142/1/3
f 150/3/3 141/3/3 149/3/3
f 150/1/3 142/1/3 141/1/3
f 151/3/3 128/3/3 143/3/3
f 151/1/3 143/1/3 150/1/3
f 152/5/3 119/5/3 118/5/3
f 152/5/3 118/5/3 117/5/3
f 153/5/3 119/5/3 152/5/3
f 154/3/3 144/3/3 119/3/3
f 154/5/3 119/5/3 153/5/3
f 155/3/3 144/3/3 154/3/3
f 156/1/3 145/1/3 144/1/3
f 156/3/3 144/3/3 155/3/3
f 157/2/3 146/2/3 145/2/3
f 157/1/3 145/1/3 156/1/3
f 157/2/3 147/2/3 146/2/3
f 158/2/3 147/2/3 157/2/3
f 159/3/3 148/3/3 147/3/3
f 159/2/3 147/2/3 158/2/3
f 160/2/3 149/2/3 148/2/3
f 160/3/3 148/3/3 159/3/3
f 161/3/3 150/3/3 149/3/3
f 161/2/3 149/2/3 160/2/3
f 161/3/3 151/3/3 150/3/3
f 162/3/3 128/3/3 151/3/3
f 162/3/3 151/3/3 161/3/3
f 163/5/3 130/5/3 129/5/3
f 163/3/3 128/3/3 162/3/3
f 163/5/3 129/5/3 128/5/3
f 164/5/3 130/5/3 163/5/3
f 165/5/3 130/5/3 164/5/3
f 166/6/3 153/6/3 152/6/3
f 167/5/3 154/5/3 153/5/3
f 167/6/3 153/6/3 166/6/3
f 168/4/3 155/4/3 154/4/3
f 168/5/3 154/5/3 167/5/3
f 169/3/3 157/3/3 156/3/3
f 169/4/3 155/4/3 168/4/3
f 169/3/3 156/3/3 155/3/3
f 170/1/3 158/1/3 157/1/3
f 170/3/3 157/3/3 169/3/3
f 171/2/3 160/2/3 159/2/3
f 171/1/3 158/1/3 170/1/3
f 171/2/3 159/2/3 158/2/3
f 172/1/3 161/1/3 160/1/3
f 172/2/3 160/2/3 171/2/3
f 173/3/3 162/3/3 161/3/3
f 173/1/3 161/1/3 172/1/3
f 174/4/3 163/4/3 162/4/3
f 174/3/3 162/3/3 173/3/3
f 175/5/3 164/5/3 163/5/3
f 175/4/3 163/4/3 174/4/3
f 176/6/3 165/6/3 164/6/3
f 176/5/3 164/5/3 175/5/3
f 177/6/3 165/6/3 176/6/3
f 178/5/3 168/5/3 167/5/3
f 178/5/3 169/5/3 168/5/3
f 179/5/3 169/5/3 178/5/3
f 180/3/3 171/3/3 170/3/3
f 180/5/3 169/5/3 179/5/3
f 180/3/3 170/3/3 169/3/3
f 181/3/3 171/3/3 180/3/3
f 182/1/3 172/1/3 171/1/3
f 182/3/3 171/3/3 181/3/3
f 183/3/3 174/3/3 173/3/3
f 183/1/3 172/1/3 182/1/3
f 183/3/3 173/3/3 172/3/3
f 184/3/3 174/3/3 183/3/3
f 185/5/3 176/5/3 175/5/3
f 185/3/3 174/3/3 184/3/3
f 185/5/3 175/5/3 174/5/3
f 186/5/3 176/5/3 185/5/3
f 187/5/3 176/5/3 186/5/3
f 188/6/3 179/6/3 178/6/3
f 189/5/3 180/5/3 179/5/3
f 189/6/3 179/6/3 188/6/3
f 190/4/3 181/4/3 180/4/3
f 190/5/3 180/5/3 189/5/3
f 191/3/3 182/3/3 181/3/3
f 191/4/3 181/4/3 190/4/3
f 191/3/3 184/3/3 183/3/3
f 191/3/3 183/3/3 182/3/3
f 192/3/3 184/3/3 191/3/3
f 193/3/3 184/3/3 192/3/3
f 194/4/3 185/4/3 184/4/3
f 194/3/3 184/3/3 193/3/3
f 195/5/3 186/5/3 185/5/3
f 195/4/3 185/4/3 194/4/3
f 196/6/3 187/6/3 186/6/3
f 196/5/3 186/5/3 195/5/3
f 197/6/3 187/6/3 196/6/3
f 198/5/3 190/5/3 189/5/3
f 198/5/3 191/5/3 190/5/3
f 199/5/3 191/5/3 198/5/3
f 200/4/3 192/4/3 191/4/3
f 200/5/3 191/5/3 199/5/3
f 201/3/3 193/3/3 192/3/3
f 201/4/3 192/4/3 200/4/3
f 202/4/3 194/4/3 193/4/3
f 202/3/3 193/3/3 201/3/3
f 203/5/3 196/5/3 195/5/3
f 203/4/3 194/4/3 202/4/3
f 203/5/3 195/5/3 194/5/3
f 204/5/3 196/5/3 203/5/3
f 205/5/3 196/5/3 204/5/3
f 206/6/3 199/6/3 198/6/3
f 207/5/3 201/5/3 200/5/3
f 207/6/3 199/6/3 206/6/3
f 207/5/3 200/5/3 199/5/3
f 208/5/3 201/5/3 207/5/3
f 209/5/3 201/5/3 208/5/3
f 210/4/3 202/4/3 201/4/3
f 210/5/3 201/5/3 209/5/3
f 211/5/3 203/5/3 202/5/3
f 211/4/3 202/4/3 210/4/3
f 211/5/3 204/5/3 203/5/3
f 212/5/3 204/5/3 211/5/3
f 213/5/3 204/5/3 212/5/3
f 214/6/3 205/6/3 204/6/3
f 214/5/3 204/5/3 213/5/3
f 215/6/3 205/6/3 214/6/3
f 216/6/3 209/6/3 208/6/3
f 217/5/3 210/5/3 209/5/3
f 217/6/3 209/6/3 216/6/3
f 217/5/3 212/5/3 211/5/3
f 217/5/3 211/5/3 210/5/3
f 218/5/3 212/5/3 217/5/3
f 219/5/3 212/5/3 218/5/3
f 220/6/3 213/6/3 212/6/3
f 220/5/3 212/5/3 219/5/3
f 221/6/3 213/6/3 220/6/3
f 222/6/3 219/6/3 218/6/3
f 223/6/3 219/6/3 222/6/3
f 224/5/4 225/5/4 227/5/4
f 227/5/4 225/5/4 228/5/4
f 226/5/4 227/5/4 231/5/4
f 231/5/4 227/5/4 232/5/4
f 227/6/4 228/6/4 233/6/4
f 232/5/4 227/5/4 233/5/4
f 228/5/4 229/5/4 234/5/4
f 233/6/4 228/6/4 234/6/4
f 234/5/4 229/5/4 235/5/4
f 235/5/4 229/5/4 236/5/4
f 231/5/4 232/5/4 238/5/4
f 230/5/4 231/5/4 238/5/4
f 238/5/4 232/5/4 239/5/4
f 232/6/4 233/6/4 240/6/4
f 239/5/4 232/5/4 240/5/4
f 233/3/4 234/3/4 241/3/4
f 240/6/4 233/6/4 241/6/4
f 234/6/4 235/6/4 242/6/4
f 241/3/4 234/3/4 242/3/4
f 236/5/4 237/5/4 243/5/4
f 242/6/4 235/6/4 243/6/4
f 235/5/4 236/5/4 243/5/4
f 243/5/4 237/5/4 244/5/4
f 244/5/4 237/5/4 245/5/4
f 230/5/4 238/5/4 247/5/4
f 238/6/4 239/6/4 248/6/4
f 247/5/4 238/5/4 248/5/4
f 241/3/4 242/3/4 249/3/4
f 248/6/4 239/6/4 249/6/4
f 239/3/4 240/3/4 249/3/4
f 240/3/4 241/3/4 249/3/4
f 242/3/4 243/3/4 249/3/4
f 243/3/4 244/3/4 249/3/4
f 244/6/4 245/6/4 250/6/4
f 249/3/4 244/3/4 250/3/4
f 245/5/4 237/5/4 251/5/4
f 250/6/4 245/6/4 251/6/4
f 251/5/4 237/5/4 252/5/4
f 246/5/4 247/5/4 254/5/4
f 247/5/4 248/5/4 254/5/4
f 249/3/4 250/3/4 255/3/4
f 254/5/4 248/5/4 255/5/4
f 248/3/4 249/3/4 255/3/4
f 250/3/4 251/3/4 255/3/4
f 255/3/4 251/3/4 256/3/4
f 256/3/4 251/3/4 257/3/4
f 252/5/4 253/5/4 258/5/4
f 257/3/4 251/3/4 258/3/4
f 251/5/4 252/5/4 258/5/4
f 258/5/4 253/5/4 259/5/4
f 246/5/4 254/5/4 261/5/4
f 254/6/4 255/6/4 262/6/4
f 261/5/4 254/5/4 262/5/4
f 255/3/4 256/3/4 263/3/4
f 262/6/4 255/6/4 263/6/4
f 263/3/4 256/3/4 264/3/4
f 256/2/4 257/2/4 265/2/4
f 264/3/4 256/3/4 265/3/4
f 265/2/4 257/2/4 266/2/4
f 257/3/4 258/3/4 267/3/4
f 266/2/4 257/2/4 267/2/4
f 267/3/4 258/3/4 268/3/4
f 268/3/4 258/3/4 269/3/4
f 258/6/4 259/6/4 270/6/4
f 269/3/4 258/3/4 270/3/4
f 259/5/4 253/5/4 271/5/4
f 270/6/4 259/6/4 271/6/4
f 271/5/4 253/5/4 272/5/4
f 263/3/4 264/3/4 274/3/4
f 262/3/4 263/3/4 274/3/4
f 265/2/4 266/2/4 275/2/4
f 274/3/4 264/3/4 275/3/4
f 264/2/4 265/2/4 275/2/4
f 275/2/4 266/2/4 276/2/4
f 266/1/4 267/1/4 277/1/4
f 276/2/4 266/2/4 277/2/4
f 267/1/4 268/1/4 277/1/4
f 268/2/4 269/2/4 278/2/4
f 277/1/4 268/1/4 278/1/4
f 269/3/4 270/3/4 279/3/4
f 278/2/4 269/2/4 279/2/4
f 270/3/4 271/3/4 279/3/4
f 279/3/4 271/3/4 280/3/4
f 276/1/4 277/1/4 281/1/4
f 274/2/4 275/2/4 281/2/4
f 275/2/4 276/2/4 281/2/4
f 277/3/4 278/3/4 282/3/4
f 281/1/4 277/1/4 282/1/4
f 278/1/4 279/1/4 283/1/4
f 282/3/4 278/3/4 283/3/4
f 279/2/4 280/2/4 284/2/4
f 283/1/4 279/1/4 284/1/4
f 280/3/4 271/3/4 285/3/4
f 284/2/4 280/2/4 285/2/4
f 285/3/4 271/3/4 286/3/4
f 274/2/4 281/2/4 287/2/4
f 262/3/4 274/3/4 287/3/4
f 287/2/4 281/2/4 288/2/4
f 283/3/4 284/3/4 289/3/4
f 288/2/4 281/2/4 289/2/4
f 282/3/4 283/3/4 289/3/4
f 281/3/4 282/3/4 289/3/4
f 289/3/4 284/3/4 290/3/4
f 290/3/4 284/3/4 291/3/4
f 291/3/4 284/3/4 292/3/4
f 285/1/4 286/1/4 293/1/4
f 292/3/4 284/3/4 293/3/4
f 284/1/4 285/1/4 293/1/4
f 286/3/4 271/3/4 294/3/4
f 293/1/4 286/1/4 294/1/4
f 261/5/4 262/5/4 295/5/4
f 260/5/4 261/5/4 295/5/4
f 295/5/4 262/5/4 296/5/4
f 262/3/4 287/3/4 297/3/4
f 296/5/4 262/5/4 297/5/4
f 297/3/4 287/3/4 298/3/4
f 287/1/4 288/1/4 299/1/4
f 298/3/4 287/3/4 299/3/4
f 288/2/4 289/2/4 300/2/4
f 299/1/4 288/1/4 300/1/4
f 289/2/4 290/2/4 300/2/4
f 300/2/4 290/2/4 301/2/4
f 290/3/4 291/3/4 302/3/4
f 301/2/4 290/2/4 302/2/4
f 291/2/4 292/2/4 303/2/4
f 302/3/4 291/3/4 303/3/4
f 292/3/4 293/3/4 304/3/4
f 303/2/4 292/2/4 304/2/4
f 293/3/4 294/3/4 304/3/4
f 294/3/4 271/3/4 305/3/4
f 304/3/4 294/3/4 305/3/4
f 272/5/4 273/5/4 306/5/4
f 305/3/4 271/3/4 306/3/4
f 271/5/4 272/5/4 306/5/4
f 306/5/4 273/5/4 307/5/4
f 307/5/4 273/5/4 308/5/4
f 295/6/4 296/6/4 309/6/4
f 296/5/4 297/5/4 310/5/4
f 309/6/4 296/6/4 310/6/4
f 297/4/4 298/4/4 311/4/4
f 310/5/4 297/5/4 311/5/4
f 299/3/4 300/3/4 312/3/4
f 311/4/4 298/4/4 312/4/4
f 298/3/4 299/3/4 312/3/4
f 300/1/4 301/1/4 313/1/4
f 312/3/4 300/3/4 313/3/4
f 302/2/4 303/2/4 314/2/4
f 313/1/4 301/1/4 314/1/4
f 301/2/4 302/2/4 314/2/4
f 303/1/4 304/1/4 315/1/4
f 314/2/4 303/2/4 315/2/4
f 304/3/4 305/3/4 316/3/4
f 315/1/4 304/1/4 316/1/4
f 305/4/4 306/4/4 317/4/4
f 316/3/4 305/3/4 317/3/4
f 306/5/4 307/5/4 318/5/4
f 317/4/4 306/4/4 318/4/4
f 307/6/4 308/6/4 319/6/4
f 318/5/4 307/5/4 319/5/4
f 319/6/4 308/6/4 320/6/4
f 310/5/4 311/5/4 321/5/4
f 311/5/4 312/5/4 321/5/4
f 321/5/4 312/5/4 322/5/4
f 313/3/4 314/3/4 323/3/4
f 322/5/4 312/5/4 323/5/4
f 312/3/4 313/3/4 323/3/4
f 323/3/4 314/3/4 324/3/4
f 314/1/4 315/1/4 325/1/4
f 324/3/4 314/3/4 325/3/4
f 316/3/4 317/3/4 326/3/4
f 325/1/4 315/1/4 326/1/4
f 315/3/4 316/3/4 326/3/4
f 326/3/4 317/3/4 327/3/4
f 318/5/4 319/5/4 328/5/4
f 327/3/4 317/3/4 328/3/4
f 317/5/4 318/5/4 328/5/4
f 328/5/4 319/5/4 329/5/4
f 329/5/4 319/5/4 330/5/4
f 321/6/4 322/6/4 331/6/4
f 322/5/4 323/5/4 332/5/4
f 331/6/4 322/6/4 332/6/4
f 323/4/4 324/4/4 333/4/4
f 332/5/4 323/5/4 333/5/4
f 324/3/4 325/3/4 334/3/4
f 333/4/4 324/4/4 334/4/4
f 326/3/4 327/3/4 334/3/4
f 325/3/4 326/3/4 334/3/4
f 334/3/4 327/3/4 335/3/4
f 335/3/4 327/3/4 336/3/4
f 327/4/4 328/4/4 337/4/4
f 336/3/4 327/3/4 337/3/4
f 328/5/4 329/5/4 338/5/4
f 337/4/4 328/4/4 338/4/4
f 329/6/4 330/6/4 339/6/4
f 338/5/4 329/5/4 339/5/4
f 339/6/4 330/6/4 340/6/4
f 332/5/4 333/5/4 341/5/4
f 333/5/4 334/5/4 341/5/4
f 341/5/4 334/5/4 342/5/4
f 334/4/4 335/4/4 343/4/4
f 342/5/4 334/5/4 343/5/4
f 335/3/4 336/3/4 344/3/4
f 343/4/4 335/4/4 344/4/4
f 336/4/4 337/4/4 345/4/4
f 344/3/4 336/3/4 345/3/4
f 338/5/4 339/5/4 346/5/4
f 345/4/4 337/4/4 346/4/4
f 337/5/4 338/5/4 346/5/4
f 346/5/4 339/5/4 347/5/4
f 347/5/4 339/5/4 348/5/4
f 341/6/4 342/6/4 349/6/4
f 343/5/4 344/5/4 350/5/4
f 349/6/4 342/6/4 350/6/4
f 342/5/4 343/5/4 350/5/4
f 350/5/4 344/5/4 351/5/4
f 351/5/4 344/5/4 352/5/4
f 344/4/4 345/4/4 353/4/4
f 352/5/4 344/5/4 353/5/4
f 345/5/4 346/5/4 354/5/4
f 353/4/4 345/4/4 354/4/4
f 346/5/4 347/5/4 354/5/4
f 354/5/4 347/5/4 355/5/4
f 355/5/4 347/5/4 356/5/4
f 347/6/4 348/6/4 357/6/4
f 356/5/4 347/5/4 357/5/4
f 357/6/4 348/6/4 358/6/4
f 351/6/4 352/6/4 359/6/4
f 352/5/4 353/5/4 360/5/4
f 359/6/4 352/6/4 360/6/4
f 354/5/4 355/5/4 360/5/4
f 353/5/4 354/5/4 360/5/4
f 360/5/4 355/5/4 361/5/4
f 361/5/4 355/5/4 362/5/4
f 355/6/4 356/6/4 363/6/4
f 362/5/4 355/5/4 363/5/4
f 363/6/4 356/6/4 364/6/4
f 361/6/4 362/6/4 365/6/4
f 365/6/4 362/6/4 366/6/4
f 370/5/5 368/5/5 367/5/5
f 371/6/5 369/6/5 368/6/5
f 371/5/5 368/5/5 370/5/5
f 372/6/5 369/6/5 371/6/5
f 378/5/5 374/5/5 373/5/5
f 379/5/5 374/5/5 378/5/5
f 380/5/5 376/5/5 375/5/5
f 381/6/5 377/6/5 376/6/5
f 381/5/5 376/5/5 380/5/5
f 382/6/5 377/6/5 381/6/5
f 388/5/5 384/5/5 383/5/5
f 389/5/5 384/5/5 388/5/5
f 390/5/5 386/5/5 385/5/5
f 391/6/5 387/6/5 386/6/5
f 391/5/5 386/5/5 390/5/5
f 392/6/5 387/6/5 391/6/5
f 397/5/5 394/5/5 393/5/5
f 398/5/5 394/5/5 397/5/5
f 399/6/5 396/6/5 395/6/5
f 400/6/5 396/6/5 399/6/5
f 405/5/5 402/5/5 401/5/5
f 406/5/5 402/5/5 405/5/5
f 407/6/5 404/6/5 403/6/5
f 408/6/5 404/6/5 407/6/5
f 409/5/6 410/5/6 413/5/6
f 413/5/6 410/5/6 414/5/6
f 411/6/6 412/6/6 415/6/6
f 415/6/6 412/6/6 416/6/6
f 417/5/6 418/5/6 421/5/6
f 421/5/6 418/5/6 422/5/6
f 419/6/6 420/6/6 423/6/6
f 423/6/6 420/6/6 424/6/6
f 425/5/6 426/5/6 430/5/6
f 430/5/6 426/5/6 431/5/6
f 427/5/6 428/5/6 432/5/6
f 428/6/6 429/6/6 433/6/6
f 432/5/6 428/5/6 433/5/6
f 433/6/6 429/6/6 434/6/6
f 435/5/6 436/5/6 440/5/6
f 440/5/6 436/5/6 441/5/6
f 437/5/6 438/5/6 442/5/6
f 438/6/6 439/6/6 443/6/6
f 442/5/6 438/5/6 443/5/6
f 443/6/6 439/6/6 444/6/6
f 445/5/6 446/5/6 448/5/6
f 446/6/6 447/6/6 449/6/6
f 448/5/6 446/5/6 449/5/6
f 449/6/6 447/6/6 450/6/6
